<svg viewBox="-921 -564.5 1842 1129" width="1842" height="1129" style="background-color: rgb(255, 255, 255);" xmlns="http://www.w3.org/2000/svg"><path d="M-758.4546884071176,17.38295229706487L-790.2991281279602,15.222434775426008M-790.2991281279602,-133.03318082333118L-790.2991281279602,15.222434775426008M-790.2991281279602,15.222434775426008L-837.2112678184706,55.65358156914746M-758.4546884071176,-130.8726633016923L-758.4546884071176,17.38295229706487M-758.4546884071176,17.38295229706487L-805.366828097628,57.814099090786314" style="fill:none;stroke:rgb(0,0,0);stroke-width:1;stroke-linecap:round"></path><path d="M-758.4546884071176,17.382952297064868L-790.2991281279602,15.222434775426011L-790.2991281279602,-133.03318082333118z" style="fill:rgb(238,238,238); fill-opacity: 0.4"></path><path d="M-668.6381339400726,15.072895023516883L-700.4825736609153,12.912377501878016M-700.4825736609153,-118.53573753449251L-700.4825736609153,12.912377501878016M-700.4825736609153,12.912377501878016L-747.3947133514255,53.343524295599465" style="fill:none;stroke:rgb(0,0,0);stroke-width:1;stroke-linecap:round"></path><path d="M-758.4546884071176,-130.8726633016923L-758.4546884071176,17.382952297064868L-790.2991281279602,-133.03318082333118z" style="fill:rgb(238,238,238); fill-opacity: 0.4"></path><path d="M-668.6381339400726,-116.37522001285366L-668.6381339400726,15.072895023516883M-668.6381339400726,15.072895023516883L-715.550273630583,55.50404181723832M-758.4546884071176,-130.8726633016923L-790.2991281279602,-133.03318082333118M-790.2991281279602,-133.03318082333118L-837.2112678184706,-92.60203402960974" style="fill:none;stroke:rgb(0,0,0);stroke-width:1;stroke-linecap:round"></path><path d="M-668.6381339400726,15.072895023516878L-700.4825736609153,12.912377501878021L-700.4825736609153,-118.53573753449251z" style="fill:rgb(238,238,238); fill-opacity: 0.4"></path><path d="M-758.4546884071176,-130.8726633016923L-805.366828097628,-90.44151650797086" style="fill:none;stroke:rgb(0,0,0);stroke-width:1;stroke-linecap:round"></path><path d="M-668.6381339400726,-116.37522001285365L-668.6381339400726,15.072895023516878L-700.4825736609153,-118.53573753449251z" style="fill:rgb(238,238,238); fill-opacity: 0.4"></path><path d="M-772.2486017407389,-1.3282158994428594L-804.0930414615814,-3.4887334210817187M-804.0930414615814,-6.409926212770203L-804.0930414615814,-3.4887334210817187M-804.0930414615814,-3.4887334210817187L-804.9063134854237,-2.787816328062358M-772.2486017407389,-4.249408691131343L-804.0930414615814,-6.409926212770203M-804.0930414615814,-6.409926212770203L-804.9063134854237,-5.709009119750842" style="fill:none;stroke:rgb(0,0,0);stroke-width:1;stroke-linecap:round"></path><path d="M-804.0930414615814,-6.409926212770207L-804.0930414615814,-3.4887334210817205L-804.9063134854235,-5.709009119750843z" style="fill:rgb(153,221,255); fill-opacity: 0.4"></path><path d="M-837.2112678184706,55.65358156914746L-790.2991281279602,15.222434775426011L-758.4546884071176,17.382952297064868z" style="fill:rgb(238,238,238); fill-opacity: 0.4"></path><path d="M-804.0930414615814,-3.4887334210817205L-804.9063134854235,-2.7878163280623607L-804.9063134854235,-5.709009119750843z" style="fill:rgb(153,221,255); fill-opacity: 0.4"></path><path d="M-804.9063134854237,-5.709009119750842L-804.9063134854237,-2.787816328062358M-804.9063134854237,-2.787816328062358L-773.061873764581,-0.6272988064234984" style="fill:none;stroke:rgb(0,0,0);stroke-width:1;stroke-linecap:round"></path><path d="M-772.2486017407388,-1.3282158994428621L-804.0930414615814,-3.4887334210817205L-804.0930414615814,-6.409926212770207z" style="fill:rgb(153,221,255); fill-opacity: 0.4"></path><path d="M-804.9063134854237,-5.709009119750842L-773.061873764581,-3.548491598111983" style="fill:none;stroke:rgb(0,0,0);stroke-width:1;stroke-linecap:round"></path><path d="M-804.9063134854235,-2.7878163280623607L-804.0930414615814,-3.4887334210817205L-772.2486017407388,-1.3282158994428621z" style="fill:rgb(153,221,255); fill-opacity: 0.4"></path><path d="M-668.6381339400726,-116.37522001285366L-700.4825736609153,-118.53573753449251M-700.4825736609153,-118.53573753449251L-747.3947133514255,-78.10459074077107" style="fill:none;stroke:rgb(0,0,0);stroke-width:1;stroke-linecap:round"></path><path d="M-804.9063134854235,-5.709009119750843L-773.061873764581,-3.5484915981119847L-804.0930414615814,-6.409926212770207zM-804.9063134854235,-5.709009119750843L-804.9063134854235,-2.7878163280623607L-773.061873764581,-3.5484915981119847zM-772.2486017407388,-4.2494086911313484L-772.2486017407388,-1.3282158994428621L-804.0930414615814,-6.409926212770207zM-773.061873764581,-3.5484915981119847L-772.2486017407388,-4.2494086911313484L-804.0930414615814,-6.409926212770207zM-773.061873764581,-0.6272988064235023L-804.9063134854235,-2.7878163280623607L-772.2486017407388,-1.3282158994428621z" style="fill:rgb(153,221,255); fill-opacity: 0.4"></path><path d="M-581.6401643691502,13.471696411423387L-613.4846040899928,11.311178889784522M-613.4846040899928,-99.88876783077176L-613.4846040899928,11.311178889784522M-613.4846040899928,11.311178889784522L-654.7595739882579,46.88394060716939M-772.2486017407389,-4.249408691131343L-772.2486017407389,-1.3282158994428594M-772.2486017407389,-1.3282158994428594L-773.061873764581,-0.6272988064234984M-772.2485912482463,-4.249408054942903L-772.2485912482463,-1.328215263254425M-772.2485912482463,-1.328215263254425L-773.0618632720884,-0.6272981702350614M-772.2485912482463,-1.328215263254425L-714.683111939053,7.240276555452252" style="fill:none;stroke:rgb(0,0,0);stroke-width:1;stroke-linecap:round"></path><path d="M-804.9063134854235,-2.7878163280623607L-773.061873764581,-0.6272988064235023L-773.061873764581,-3.5484915981119847z" style="fill:rgb(153,221,255); fill-opacity: 0.4"></path><path d="M-772.2486017407389,-4.249408691131343L-773.061873764581,-3.548491598111983M-772.2485912482463,-4.249408054942903L-773.0618632720884,-3.5484909619235436M-772.2485912482463,-4.249408054942903L-714.683111939053,7.240276555452252" style="fill:none;stroke:rgb(0,0,0);stroke-width:1;stroke-linecap:round"></path><path d="M-772.2486020281949,-4.249408710634084L-772.2486020281949,-1.328215918945598L-773.061874052037,-0.6272988259262381z" style="fill:rgb(255,187,187); fill-opacity: 0.4"></path><path d="M-773.061873764581,-0.6272988064235023L-772.2486017407388,-1.3282158994428621L-772.2486017407388,-4.2494086911313484z" style="fill:rgb(153,221,255); fill-opacity: 0.4"></path><path d="M-772.2486020281949,-4.249408710634084L-773.061874052037,-0.6272988259262381L-773.061874052037,-3.5484916176147205z" style="fill:rgb(255,187,187); fill-opacity: 0.4"></path><path d="M-773.061873764581,-3.5484915981119847L-773.061873764581,-0.6272988064235023L-772.2486017407388,-4.2494086911313484z" style="fill:rgb(153,221,255); fill-opacity: 0.4"></path><path d="M-773.061873764581,-3.548491598111983L-773.061873764581,-0.6272988064234984M-773.0618632720884,-0.6272981702350614L-773.0618632720884,-3.5484909619235436M-773.0618632720884,-0.6272981702350614L-714.683111939053,7.240276555452252M-773.0618632720884,-3.5484909619235436L-714.683111939053,7.240276555452252M-668.6381339400726,-116.37522001285366L-715.550273630583,-75.9440732191322" style="fill:none;stroke:rgb(0,0,0);stroke-width:1;stroke-linecap:round"></path><path d="M-772.2486020281949,-1.328215918945598L-772.2486020281949,-4.249408710634084L-714.6831227190014,7.240273257081277zM-773.061874052037,-0.6272988259262381L-772.2486020281949,-1.328215918945598L-714.6831227190014,7.240273257081277zM-772.2486020281949,-4.249408710634084L-773.061874052037,-3.5484916176147205L-714.6831227190014,7.240273257081277zM-773.061874052037,-3.5484916176147205L-773.061874052037,-0.6272988259262381L-714.6831227190014,7.240273257081277z" style="fill:rgb(255,187,187); fill-opacity: 0.4"></path><path d="M-581.6401643691502,-97.7282503091329L-581.6401643691502,13.471696411423387M-581.6401643691502,13.471696411423387L-622.9151342674154,49.04445812880824" style="fill:none;stroke:rgb(0,0,0);stroke-width:1;stroke-linecap:round"></path><path d="M-805.366828097628,57.814099090786314L-758.4546884071176,17.382952297064868L-758.4546884071176,-130.8726633016923zM-581.6401643691502,13.471696411423384L-613.4846040899928,11.311178889784525L-613.4846040899928,-99.88876783077177zM-790.2991281279602,-133.03318082333118L-790.2991281279602,15.222434775426011L-837.2112678184706,-92.60203402960973zM-747.3947133514255,53.343524295599465L-700.4825736609153,12.912377501878021L-668.6381339400726,15.072895023516878zM-581.6401643691502,-97.7282503091329L-581.6401643691502,13.471696411423384L-613.4846040899928,-99.88876783077177z" style="fill:rgb(238,238,238); fill-opacity: 0.4"></path><path d="M-491.82360990210526,19.56538941906872L-523.6680496229477,17.404871897429853M-523.6680496229477,-93.79507482312644L-523.6680496229477,17.404871897429853M-523.6680496229477,17.404871897429853L-564.9430195212129,52.97763361481472M-581.6401643691502,-97.7282503091329L-613.4846040899928,-99.88876783077176M-613.4846040899928,-99.88876783077176L-654.7595739882579,-64.3160061133869M-491.82360990210526,-91.63455730148759L-491.82360990210526,19.56538941906872M-491.82360990210526,19.56538941906872L-533.0985798003704,55.13815113645357" style="fill:none;stroke:rgb(0,0,0);stroke-width:1;stroke-linecap:round"></path><path d="M-805.366828097628,-90.44151650797087L-758.4546884071176,-130.8726633016923L-790.2991281279602,-133.03318082333118z" style="fill:rgb(238,238,238); fill-opacity: 0.4"></path><path d="M-581.6401643691502,-97.7282503091329L-622.9151342674154,-62.15548859174804" style="fill:none;stroke:rgb(0,0,0);stroke-width:1;stroke-linecap:round"></path><path d="M-491.82360990210515,19.565389419068715L-523.6680496229477,17.404871897429857L-523.6680496229477,-93.79507482312643zM-715.550273630583,55.50404181723833L-668.6381339400726,15.072895023516878L-668.6381339400726,-116.37522001285365zM-700.4825736609153,-118.53573753449251L-700.4825736609153,12.912377501878021L-747.3947133514255,-78.10459074077107zM-491.82360990210515,-91.63455730148758L-491.82360990210515,19.565389419068715L-523.6680496229477,-93.79507482312643z" style="fill:rgb(238,238,238); fill-opacity: 0.4"></path><path d="M-341.83519407034265,28.47753939514578L-433.9544463857002,22.22761757355579M-433.9544463857002,-86.25297795777422L-433.9544463857002,22.22761757355579M-433.9544463857002,22.22761757355579L-475.02351398999576,57.62292275351617" style="fill:none;stroke:rgb(0,0,0);stroke-width:1;stroke-linecap:round"></path><path d="M-654.7595739882579,46.88394060716938L-613.4846040899928,11.311178889784525L-581.6401643691502,13.471696411423384zM-805.366828097628,57.814099090786314L-837.2112678184706,55.65358156914746L-758.4546884071176,17.382952297064868z" style="fill:rgb(238,238,238); fill-opacity: 0.4"></path><path d="M-491.82360990210526,-91.63455730148759L-523.6680496229477,-93.79507482312644M-523.6680496229477,-93.79507482312644L-564.9430195212129,-58.22231310574158" style="fill:none;stroke:rgb(0,0,0);stroke-width:1;stroke-linecap:round"></path><path d="M-715.550273630583,-75.9440732191322L-668.6381339400726,-116.37522001285365L-700.4825736609153,-118.53573753449251zM-790.2991281279602,15.222434775426011L-837.2112678184706,55.65358156914746L-837.2112678184706,-92.60203402960973z" style="fill:rgb(238,238,238); fill-opacity: 0.4"></path><path d="M-491.82360990210526,-91.63455730148759L-533.0985798003704,-56.06179558410271M-502.196221411963,15.903285709306015L-534.0406611328056,13.742768187667158M-534.0406611328056,-0.8631957707752638L-534.0406611328056,13.742768187667158M-534.0406611328056,13.742768187667158L-538.1070212520165,17.247353652763962" style="fill:none;stroke:rgb(0,0,0);stroke-width:1;stroke-linecap:round"></path><path d="M-622.9151342674154,49.044458128808245L-581.6401643691502,13.471696411423384L-581.6401643691502,-97.7282503091329zM-613.4846040899928,-99.88876783077177L-613.4846040899928,11.311178889784525L-654.7595739882579,-64.3160061133869z" style="fill:rgb(238,238,238); fill-opacity: 0.4"></path><path d="M-696.4821479904982,10.606685156212926L-728.3265877113408,8.446167634574067M-728.3265877113408,2.6037820511970993L-728.3265877113408,8.446167634574067M-728.3265877113408,8.446167634574067L-729.9531317590252,9.84800182061279" style="fill:none;stroke:rgb(0,0,0);stroke-width:1;stroke-linecap:round"></path><path d="M-341.83519407034265,28.477539395145783L-433.9544463857002,22.22761757355579L-433.9544463857002,-86.25297795777422z" style="fill:rgb(238,238,238); fill-opacity: 0.4"></path><path d="M-502.196221411963,1.2973217508635946L-534.0406611328056,-0.8631957707752638M-534.0406611328056,-0.8631957707752638L-538.1070212520165,2.6413896943215414" style="fill:none;stroke:rgb(0,0,0);stroke-width:1;stroke-linecap:round"></path><path d="M-502.196221411963,15.903285709306024L-534.0406611328057,13.742768187667162L-534.0406611328057,-0.8631957707752619z" style="fill:rgb(153,221,255); fill-opacity: 0.4"></path><path d="M-696.4821479904982,4.764299572835958L-728.3265877113408,2.6037820511970993M-728.3265877113408,2.6037820511970993L-729.9531317590252,4.005616237235821" style="fill:none;stroke:rgb(0,0,0);stroke-width:1;stroke-linecap:round"></path><path d="M-728.3265877113408,2.6037820511970984L-728.3265877113408,8.446167634574063L-729.9531317590252,4.0056162372358175zM-696.4821479904983,10.60668515621292L-728.3265877113408,8.446167634574063L-728.3265877113408,2.6037820511970984zM-534.0406611328057,-0.8631957707752619L-534.0406611328057,13.742768187667162L-538.1070212520166,2.6413896943215414zM-728.3265877113408,8.446167634574063L-729.9531317590252,9.848001820612783L-729.9531317590252,4.0056162372358175zM-538.1070212520166,17.247353652763966L-534.0406611328057,13.742768187667162L-502.196221411963,15.903285709306024zM-729.9531317590252,9.848001820612783L-728.3265877113408,8.446167634574063L-696.4821479904983,10.60668515621292zM-502.196221411963,1.2973217508635986L-502.196221411963,15.903285709306024L-534.0406611328057,-0.8631957707752619z" style="fill:rgb(153,221,255); fill-opacity: 0.4"></path><path d="M-502.196221411963,1.2973217508635946L-502.196221411963,15.903285709306015M-502.196221411963,15.903285709306015L-506.26258153117396,19.407871174402818M-502.196217489732,1.2973206959629122L-502.196217489732,15.903284654405336M-502.196217489732,15.903284654405336L-506.2625776089431,19.407870119502142M-502.196217489732,15.903284654405336L-446.2983517210532,25.978653426055704M-729.9531317590252,4.005616237235821L-729.9531317590252,9.84800182061279M-729.9531317590252,9.84800182061279L-698.1086920381825,12.008519342251649" style="fill:none;stroke:rgb(0,0,0);stroke-width:1;stroke-linecap:round"></path><path d="M-696.4821479904983,4.764299572835957L-696.4821479904983,10.60668515621292L-728.3265877113408,2.6037820511970984z" style="fill:rgb(153,221,255); fill-opacity: 0.4"></path><path d="M-729.9531317590252,4.005616237235821L-698.1086920381825,6.166133758874679" style="fill:none;stroke:rgb(0,0,0);stroke-width:1;stroke-linecap:round"></path><path d="M-534.0406611328057,13.742768187667162L-538.1070212520166,17.247353652763966L-538.1070212520166,2.6413896943215414z" style="fill:rgb(153,221,255); fill-opacity: 0.4"></path><path d="M-341.83519407034265,-80.00305613618423L-341.83519407034265,28.47753939514578M-341.83519407034265,28.47753939514578L-382.90426167463824,63.87284457510615" style="fill:none;stroke:rgb(0,0,0);stroke-width:1;stroke-linecap:round"></path><path d="M-729.9531317590252,4.0056162372358175L-698.1086920381827,6.166133758874676L-728.3265877113408,2.6037820511970984z" style="fill:rgb(153,221,255); fill-opacity: 0.4"></path><path d="M-564.9430195212129,52.977633614814714L-523.6680496229477,17.404871897429857L-491.82360990210515,19.565389419068715z" style="fill:rgb(238,238,238); fill-opacity: 0.4"></path><path d="M-696.4821479904982,4.764299572835958L-696.4821479904982,10.606685156212926M-696.4821479904982,10.606685156212926L-698.1086920381825,12.008519342251649M-696.4821396582702,4.764301184074455L-696.4821396582702,10.606686767451423M-696.4821396582702,10.606686767451423L-698.1086837059545,12.008520953490143M-696.4821396582702,10.606686767451423L-638.6982949926767,16.171698276356942M-502.196221411963,1.2973217508635946L-506.26258153117396,4.8019072159604M-502.196217489732,1.2973206959629122L-506.2625776089431,4.801906161059719M-502.196217489732,1.2973206959629122L-446.2983517210532,25.978653426055704" style="fill:none;stroke:rgb(0,0,0);stroke-width:1;stroke-linecap:round"></path><path d="M-698.1086920381827,6.166133758874676L-696.4821479904983,4.764299572835957L-728.3265877113408,2.6037820511970984zM-729.9531317590252,4.0056162372358175L-729.9531317590252,9.848001820612783L-698.1086920381827,6.166133758874676zM-698.1086920381827,12.00851934225164L-729.9531317590252,9.848001820612783L-696.4821479904983,10.60668515621292z" style="fill:rgb(153,221,255); fill-opacity: 0.4"></path><path d="M-341.83519407034265,-80.00305613618423L-433.9544463857002,-86.25297795777422M-433.9544463857002,-86.25297795777422L-475.02351398999576,-50.85767277781385M-696.4821479904982,4.764299572835958L-698.1086920381825,6.166133758874679M-696.4821396582702,4.764301184074455L-698.1086837059545,6.166135370113178M-696.4821396582702,4.764301184074455L-638.6982949926767,16.171698276356942" style="fill:none;stroke:rgb(0,0,0);stroke-width:1;stroke-linecap:round"></path><path d="M-715.550273630583,55.50404181723833L-747.3947133514255,53.343524295599465L-668.6381339400726,15.072895023516878z" style="fill:rgb(238,238,238); fill-opacity: 0.4"></path><path d="M-538.1070212520165,2.6413896943215414L-538.1070212520165,17.247353652763962M-538.1070212520165,17.247353652763962L-506.26258153117396,19.407871174402818" style="fill:none;stroke:rgb(0,0,0);stroke-width:1;stroke-linecap:round"></path><path d="M-506.26258153117396,4.8019072159604015L-502.196221411963,1.2973217508635986L-534.0406611328057,-0.8631957707752619z" style="fill:rgb(153,221,255); fill-opacity: 0.4"></path><path d="M-696.4821482779541,4.764299553333221L-696.4821482779541,10.606685136710185L-698.1086923256386,12.008519322748905z" style="fill:rgb(255,187,187); fill-opacity: 0.4"></path><path d="M-698.1086920381827,12.00851934225164L-696.4821479904983,10.60668515621292L-696.4821479904983,4.764299572835957z" style="fill:rgb(153,221,255); fill-opacity: 0.4"></path><path d="M-502.19622169941897,1.297321731360861L-502.19622169941897,15.903285689803283L-506.26258181863,19.407871154900086z" style="fill:rgb(255,187,187); fill-opacity: 0.4"></path><path d="M-506.26258153117396,19.40787117440282L-502.196221411963,15.903285709306024L-502.196221411963,1.2973217508635986z" style="fill:rgb(153,221,255); fill-opacity: 0.4"></path><path d="M-805.366828097628,-90.44151650797087L-805.366828097628,57.814099090786314L-758.4546884071176,-130.8726633016923z" style="fill:rgb(238,238,238); fill-opacity: 0.4"></path><path d="M-729.9531317590252,9.848001820612783L-698.1086920381827,12.00851934225164L-698.1086920381827,6.166133758874676zM-506.26258153117396,19.40787117440282L-538.1070212520166,17.247353652763966L-502.196221411963,15.903285709306024zM-538.1070212520166,2.6413896943215414L-506.26258153117396,4.8019072159604015L-534.0406611328057,-0.8631957707752619z" style="fill:rgb(153,221,255); fill-opacity: 0.4"></path><path d="M-696.4821482779541,4.764299553333221L-698.1086923256386,12.008519322748905L-698.1086923256386,6.166133739371941z" style="fill:rgb(255,187,187); fill-opacity: 0.4"></path><path d="M-698.1086920381827,6.166133758874676L-698.1086920381827,12.00851934225164L-696.4821479904983,4.764299572835957z" style="fill:rgb(153,221,255); fill-opacity: 0.4"></path><path d="M-502.19622169941897,15.903285689803283L-502.19622169941897,1.297321731360861L-446.29835073244647,25.978652829199007z" style="fill:rgb(255,187,187); fill-opacity: 0.4"></path><path d="M-698.1086920381825,6.166133758874679L-698.1086920381825,12.008519342251649M-698.1086837059545,12.008520953490143L-698.1086837059545,6.166135370113178M-698.1086837059545,12.008520953490143L-638.6982949926767,16.171698276356942" style="fill:none;stroke:rgb(0,0,0);stroke-width:1;stroke-linecap:round"></path><path d="M-622.9151342674154,-62.15548859174805L-581.6401643691502,-97.7282503091329L-613.4846040899928,-99.88876783077177z" style="fill:rgb(238,238,238); fill-opacity: 0.4"></path><path d="M-538.1070212520165,2.6413896943215414L-506.26258153117396,4.8019072159604" style="fill:none;stroke:rgb(0,0,0);stroke-width:1;stroke-linecap:round"></path><path d="M-696.4821482779541,10.606685136710185L-696.4821482779541,4.764299553333221L-638.69830363848,16.171697586143132z" style="fill:rgb(255,187,187); fill-opacity: 0.4"></path><path d="M-700.4825736609153,12.912377501878021L-747.3947133514255,53.343524295599465L-747.3947133514255,-78.10459074077107z" style="fill:rgb(238,238,238); fill-opacity: 0.4"></path><path d="M-698.1086837059545,6.166135370113178L-638.6982949926767,16.171698276356942" style="fill:none;stroke:rgb(0,0,0);stroke-width:1;stroke-linecap:round"></path><path d="M-698.1086923256386,12.008519322748905L-696.4821482779541,10.606685136710185L-638.69830363848,16.171697586143132z" style="fill:rgb(255,187,187); fill-opacity: 0.4"></path><path d="M-538.1070212520166,2.6413896943215414L-538.1070212520166,17.247353652763966L-506.26258153117396,4.8019072159604015z" style="fill:rgb(153,221,255); fill-opacity: 0.4"></path><path d="M-696.4821482779541,4.764299553333221L-698.1086923256386,6.166133739371941L-638.69830363848,16.171697586143132zM-502.19622169941897,1.297321731360861L-506.26258181863,19.407871154900086L-506.26258181863,4.801907196457664z" style="fill:rgb(255,187,187); fill-opacity: 0.4"></path><path d="M-506.26258153117396,4.8019072159604015L-506.26258153117396,19.40787117440282L-502.196221411963,1.2973217508635986z" style="fill:rgb(153,221,255); fill-opacity: 0.4"></path><path d="M-506.26258181863,19.407871154900086L-502.19622169941897,15.903285689803283L-446.29835073244647,25.978652829199007z" style="fill:rgb(255,187,187); fill-opacity: 0.4"></path><path d="M-341.83519407034265,-80.00305613618423L-341.83519407034265,28.477539395145783L-433.9544463857002,-86.25297795777422z" style="fill:rgb(238,238,238); fill-opacity: 0.4"></path><path d="M-538.1070212520166,17.247353652763966L-506.26258153117396,19.40787117440282L-506.26258153117396,4.8019072159604015z" style="fill:rgb(153,221,255); fill-opacity: 0.4"></path><path d="M-837.2112678184706,-92.60203402960973L-805.366828097628,-90.44151650797087L-790.2991281279602,-133.03318082333118z" style="fill:rgb(238,238,238); fill-opacity: 0.4"></path><path d="M-698.1086923256386,6.166133739371941L-698.1086923256386,12.008519322748905L-638.69830363848,16.171697586143132z" style="fill:rgb(255,187,187); fill-opacity: 0.4"></path><path d="M-506.26258153117396,4.8019072159604L-506.26258153117396,19.407871174402818M-506.2625776089431,19.407870119502142L-506.2625776089431,4.801906161059719M-506.2625776089431,19.407870119502142L-446.2983517210532,25.978653426055704" style="fill:none;stroke:rgb(0,0,0);stroke-width:1;stroke-linecap:round"></path><path d="M-502.19622169941897,1.297321731360861L-506.26258181863,4.801907196457664L-446.29835073244647,25.978652829199007z" style="fill:rgb(255,187,187); fill-opacity: 0.4"></path><path d="M-506.2625776089431,4.801906161059719L-446.2983517210532,25.978653426055704" style="fill:none;stroke:rgb(0,0,0);stroke-width:1;stroke-linecap:round"></path><path d="M-533.0985798003703,55.13815113645358L-491.82360990210515,19.565389419068715L-491.82360990210515,-91.63455730148758z" style="fill:rgb(238,238,238); fill-opacity: 0.4"></path><path d="M-506.26258181863,4.801907196457664L-506.26258181863,19.407871154900086L-446.29835073244647,25.978652829199007z" style="fill:rgb(255,187,187); fill-opacity: 0.4"></path><path d="M-523.6680496229477,-93.79507482312643L-523.6680496229477,17.404871897429857L-564.9430195212129,-58.22231310574157z" style="fill:rgb(238,238,238); fill-opacity: 0.4"></path><path d="M-180.0966188669864,38.0496948955842L-283.9687067050149,31.00239031900573M-283.9687067050149,-74.47948732659673L-283.9687067050149,31.00239031900573M-283.9687067050149,31.00239031900573L-324.8265203985152,66.2156266797978M-605.9704245143647,2.1861345931451606L-637.8148642352072,0.025617071506301613M-637.8148642352072,-2.895575720182183L-637.8148642352072,0.025617071506301613M-637.8148642352072,0.025617071506301613L-638.6281362590494,0.7265341645256624M-605.9704245143647,-0.7350581985433238L-637.8148642352072,-2.895575720182183M-637.8148642352072,-2.895575720182183L-638.6281362590494,-2.1946586271628217" style="fill:none;stroke:rgb(0,0,0);stroke-width:1;stroke-linecap:round"></path><path d="M-637.8148642352072,-2.895575720182183L-637.8148642352072,0.025617071506303324L-638.6281362590495,-2.194658627162819zM-637.8148642352072,0.025617071506303324L-638.6281362590495,0.7265341645256632L-638.6281362590495,-2.194658627162819z" style="fill:rgb(153,221,255); fill-opacity: 0.4"></path><path d="M-638.6281362590494,-2.1946586271628217L-638.6281362590494,0.7265341645256624M-638.6281362590494,0.7265341645256624L-606.7836965382069,2.8870516861645217" style="fill:none;stroke:rgb(0,0,0);stroke-width:1;stroke-linecap:round"></path><path d="M-605.9704245143647,2.186134593145162L-637.8148642352072,0.025617071506303324L-637.8148642352072,-2.895575720182183z" style="fill:rgb(153,221,255); fill-opacity: 0.4"></path><path d="M-638.6281362590494,-2.1946586271628217L-606.7836965382069,-0.03414110552396291" style="fill:none;stroke:rgb(0,0,0);stroke-width:1;stroke-linecap:round"></path><path d="M-638.6281362590495,0.7265341645256632L-637.8148642352072,0.025617071506303324L-605.9704245143647,2.186134593145162zM-638.6281362590495,-2.194658627162819L-606.7836965382069,-0.034141105523960706L-637.8148642352072,-2.895575720182183zM-638.6281362590495,-2.194658627162819L-638.6281362590495,0.7265341645256632L-606.7836965382069,-0.034141105523960706zM-605.9704245143647,-0.7350581985433244L-605.9704245143647,2.186134593145162L-637.8148642352072,-2.895575720182183z" style="fill:rgb(153,221,255); fill-opacity: 0.4"></path><path d="M-837.2112678184706,-92.60203402960974L-837.2112678184706,55.65358156914746M-837.2112678184706,55.65358156914746L-805.366828097628,57.814099090786314" style="fill:none;stroke:rgb(0,0,0);stroke-width:1;stroke-linecap:round"></path><path d="M-606.7836965382069,-0.034141105523960706L-605.9704245143647,-0.7350581985433244L-637.8148642352072,-2.895575720182183zM-606.7836965382069,2.8870516861645217L-638.6281362590495,0.7265341645256632L-605.9704245143647,2.186134593145162z" style="fill:rgb(153,221,255); fill-opacity: 0.4"></path><path d="M-605.9704296170713,-0.7350589899223761L-605.9704296170713,2.1861338017661103M-605.9704296170713,2.1861338017661103L-606.7837016409136,2.88705089478547M-605.9704296170713,2.1861338017661103L-548.4049503078779,12.301950220466699M-605.9704245143647,-0.7350581985433238L-605.9704245143647,2.1861345931451606M-605.9704245143647,2.1861345931451606L-606.7836965382069,2.8870516861645217" style="fill:none;stroke:rgb(0,0,0);stroke-width:1;stroke-linecap:round"></path><path d="M-622.9151342674154,49.044458128808245L-654.7595739882579,46.88394060716938L-581.6401643691502,13.471696411423384z" style="fill:rgb(238,238,238); fill-opacity: 0.4"></path><path d="M-638.6281362590495,0.7265341645256632L-606.7836965382069,2.8870516861645217L-606.7836965382069,-0.034141105523960706z" style="fill:rgb(153,221,255); fill-opacity: 0.4"></path><path d="M-605.9704296170713,-0.7350589899223761L-606.7837016409136,-0.034141896903016215M-605.9704296170713,-0.7350589899223761L-548.4049503078779,12.301950220466699M-605.9704245143647,-0.7350581985433238L-606.7836965382069,-0.03414110552396291M-341.83519407034265,-80.00305613618423L-382.90426167463824,-44.60775095622386" style="fill:none;stroke:rgb(0,0,0);stroke-width:1;stroke-linecap:round"></path><path d="M-715.550273630583,-75.9440732191322L-715.550273630583,55.50404181723833L-668.6381339400726,-116.37522001285365z" style="fill:rgb(238,238,238); fill-opacity: 0.4"></path><path d="M-605.9704248018206,-0.7350582180460602L-605.9704248018206,2.186134573642426L-606.7836968256628,2.887051666661786z" style="fill:rgb(255,187,187); fill-opacity: 0.4"></path><path d="M-606.7836965382069,2.8870516861645217L-605.9704245143647,2.186134593145162L-605.9704245143647,-0.7350581985433244z" style="fill:rgb(153,221,255); fill-opacity: 0.4"></path><path d="M-605.9704248018206,-0.7350582180460602L-606.7836968256628,2.887051666661786L-606.7836968256628,-0.03414112502669638z" style="fill:rgb(255,187,187); fill-opacity: 0.4"></path><path d="M-606.7836965382069,-0.034141105523960706L-606.7836965382069,2.8870516861645217L-605.9704245143647,-0.7350581985433244z" style="fill:rgb(153,221,255); fill-opacity: 0.4"></path><path d="M-606.7837016409136,2.88705089478547L-606.7837016409136,-0.034141896903016215M-606.7837016409136,2.88705089478547L-548.4049503078779,12.301950220466699M-606.7836965382069,-0.03414110552396291L-606.7836965382069,2.8870516861645217M-606.7837016409136,-0.034141896903016215L-548.4049503078779,12.301950220466699" style="fill:none;stroke:rgb(0,0,0);stroke-width:1;stroke-linecap:round"></path><path d="M-613.4846040899928,11.311178889784525L-654.7595739882579,46.88394060716938L-654.7595739882579,-64.3160061133869zM-475.02351398999576,57.62292275351618L-433.9544463857002,22.22761757355579L-341.83519407034265,28.477539395145783zM-533.0985798003703,-56.06179558410272L-491.82360990210515,-91.63455730148758L-523.6680496229477,-93.79507482312643z" style="fill:rgb(238,238,238); fill-opacity: 0.4"></path><path d="M-605.9704248018206,2.186134573642426L-605.9704248018206,-0.7350582180460602L-548.4049454926273,12.301950391563338zM-606.7836968256628,2.887051666661786L-605.9704248018206,2.186134573642426L-548.4049454926273,12.301950391563338z" style="fill:rgb(255,187,187); fill-opacity: 0.4"></path><path d="M-747.3947133514255,-78.10459074077107L-715.550273630583,-75.9440732191322L-700.4825736609153,-118.53573753449251z" style="fill:rgb(238,238,238); fill-opacity: 0.4"></path><path d="M-605.9704248018206,-0.7350582180460602L-606.7836968256628,-0.03414112502669638L-548.4049454926273,12.301950391563338z" style="fill:rgb(255,187,187); fill-opacity: 0.4"></path><path d="M-805.366828097628,-90.44151650797086L-805.366828097628,57.814099090786314" style="fill:none;stroke:rgb(0,0,0);stroke-width:1;stroke-linecap:round"></path><path d="M-606.7836968256628,-0.03414112502669638L-606.7836968256628,2.887051666661786L-548.4049454926273,12.301950391563338z" style="fill:rgb(255,187,187); fill-opacity: 0.4"></path><path d="M-180.09661886698646,38.04969489558421L-283.9687067050149,31.00239031900573L-283.9687067050149,-74.47948732659674zM-433.9544463857002,-86.25297795777422L-433.9544463857002,22.22761757355579L-475.02351398999576,-50.85767277781384zM-837.2112678184706,55.65358156914746L-805.366828097628,57.814099090786314L-805.366828097628,-90.44151650797087z" style="fill:rgb(238,238,238); fill-opacity: 0.4"></path><path d="M-180.0966188669864,-67.43218275001827L-283.9687067050149,-74.47948732659673M-283.9687067050149,-74.47948732659673L-324.8265203985152,-39.26625096580468M-180.0966188669864,-67.43218275001827L-180.0966188669864,38.0496948955842M-180.0966188669864,38.0496948955842L-220.95443256048677,73.26293125637626" style="fill:none;stroke:rgb(0,0,0);stroke-width:1;stroke-linecap:round"></path><path d="M-622.9151342674154,-62.15548859174805L-622.9151342674154,49.044458128808245L-581.6401643691502,-97.7282503091329zM-533.0985798003703,55.13815113645358L-564.9430195212129,52.977633614814714L-491.82360990210515,19.565389419068715z" style="fill:rgb(238,238,238); fill-opacity: 0.4"></path><path d="M-747.3947133514255,-78.10459074077107L-747.3947133514255,53.343524295599465M-747.3947133514255,53.343524295599465L-715.550273630583,55.50404181723832" style="fill:none;stroke:rgb(0,0,0);stroke-width:1;stroke-linecap:round"></path><path d="M-654.7595739882579,-64.3160061133869L-622.9151342674154,-62.15548859174805L-613.4846040899928,-99.88876783077177zM-837.2112678184706,-92.60203402960973L-837.2112678184706,55.65358156914746L-805.366828097628,-90.44151650797087zM-180.09661886698646,-67.43218275001826L-180.09661886698646,38.04969489558421L-283.9687067050149,-74.47948732659674zM-523.6680496229477,17.404871897429857L-564.9430195212129,52.977633614814714L-564.9430195212129,-58.22231310574157zM-382.90426167463824,63.872844575106164L-341.83519407034265,28.477539395145783L-341.83519407034265,-80.00305613618423z" style="fill:rgb(238,238,238); fill-opacity: 0.4"></path><path d="M-715.550273630583,-75.9440732191322L-715.550273630583,55.50404181723832M-837.2112678184706,-92.60203402960974L-805.366828097628,-90.44151650797086M-10.02209181370488,48.018313531590046L-122.23294556290818,40.40525713089811M-122.23294556290818,-61.73447214555149L-122.23294556290818,40.40525713089811M-122.23294556290818,40.40525713089811L-162.8738745139968,75.43157174999135" style="fill:none;stroke:rgb(0,0,0);stroke-width:1;stroke-linecap:round"></path><path d="M-382.90426167463824,-44.60775095622385L-341.83519407034265,-80.00305613618423L-433.9544463857002,-86.25297795777422z" style="fill:rgb(238,238,238); fill-opacity: 0.4"></path><path d="M-368.2357133542496,47.47691892773081L-460.3549656696071,41.226997106140814M-460.3549656696071,26.6210331476984L-460.3549656696071,41.226997106140814M-460.3549656696071,41.226997106140814L-464.4213257888181,44.731582571237624" style="fill:none;stroke:rgb(0,0,0);stroke-width:1;stroke-linecap:round"></path><path d="M-747.3947133514255,53.343524295599465L-715.550273630583,55.50404181723833L-715.550273630583,-75.9440732191322z" style="fill:rgb(238,238,238); fill-opacity: 0.4"></path><path d="M-654.7595739882579,-64.3160061133869L-654.7595739882579,46.88394060716939M-654.7595739882579,46.88394060716939L-622.9151342674154,49.04445812880824M-368.2357133542496,32.87095496928839L-460.3549656696071,26.6210331476984M-460.3549656696071,26.6210331476984L-464.4213257888181,30.125618612795204M-180.0966188669864,-67.43218275001827L-220.95443256048677,-32.21894638922621" style="fill:none;stroke:rgb(0,0,0);stroke-width:1;stroke-linecap:round"></path><path d="M-533.0985798003703,-56.06179558410272L-533.0985798003703,55.13815113645358L-491.82360990210515,-91.63455730148758zM-324.82652039851524,66.2156266797978L-283.9687067050149,31.00239031900573L-180.09661886698646,38.04969489558421z" style="fill:rgb(238,238,238); fill-opacity: 0.4"></path><path d="M-460.35496566960705,26.621033147698395L-460.35496566960705,41.226997106140814L-464.4213257888181,30.125618612795204z" style="fill:rgb(153,221,255); fill-opacity: 0.4"></path><path d="M-564.9430195212129,-58.22231310574157L-533.0985798003703,-56.06179558410272L-523.6680496229477,-93.79507482312643zM-747.3947133514255,-78.10459074077107L-747.3947133514255,53.343524295599465L-715.550273630583,-75.9440732191322z" style="fill:rgb(238,238,238); fill-opacity: 0.4"></path><path d="M-368.2357133542495,47.47691892773081L-460.35496566960705,41.226997106140814L-460.35496566960705,26.621033147698395z" style="fill:rgb(153,221,255); fill-opacity: 0.4"></path><path d="M-622.9151342674154,-62.15548859174804L-622.9151342674154,49.04445812880824" style="fill:none;stroke:rgb(0,0,0);stroke-width:1;stroke-linecap:round"></path><path d="M-460.35496566960705,41.226997106140814L-464.4213257888181,44.731582571237624L-464.4213257888181,30.125618612795204z" style="fill:rgb(153,221,255); fill-opacity: 0.4"></path><path d="M-433.9544463857002,22.22761757355579L-475.02351398999576,57.62292275351618L-475.02351398999576,-50.85767277781384zM-10.02209181370488,48.01831353159005L-122.23294556290824,40.405257130898114L-122.23294556290824,-61.734472145551486z" style="fill:rgb(238,238,238); fill-opacity: 0.4"></path><path d="M-464.4213257888181,44.731582571237624L-460.35496566960705,41.226997106140814L-368.2357133542495,47.47691892773081z" style="fill:rgb(153,221,255); fill-opacity: 0.4"></path><path d="M-283.9687067050149,-74.47948732659674L-283.9687067050149,31.00239031900573L-324.82652039851524,-39.26625096580469z" style="fill:rgb(238,238,238); fill-opacity: 0.4"></path><path d="M-464.4213257888181,30.125618612795204L-464.4213257888181,44.731582571237624M-464.4213257888181,44.731582571237624L-372.3020734734605,50.98150439282761" style="fill:none;stroke:rgb(0,0,0);stroke-width:1;stroke-linecap:round"></path><path d="M-654.7595739882579,46.88394060716938L-622.9151342674154,49.044458128808245L-622.9151342674154,-62.15548859174805z" style="fill:rgb(238,238,238); fill-opacity: 0.4"></path><path d="M-747.3947133514255,-78.10459074077107L-715.550273630583,-75.9440732191322M-464.4213257888181,30.125618612795204L-372.3020734734605,36.375540434385194" style="fill:none;stroke:rgb(0,0,0);stroke-width:1;stroke-linecap:round"></path><path d="M-368.2357133542495,32.870954969288384L-368.2357133542495,47.47691892773081L-460.35496566960705,26.621033147698395z" style="fill:rgb(153,221,255); fill-opacity: 0.4"></path><path d="M-382.90426167463824,63.872844575106164L-475.02351398999576,57.62292275351618L-341.83519407034265,28.477539395145783z" style="fill:rgb(238,238,238); fill-opacity: 0.4"></path><path d="M-10.02209181370488,-54.121415744859554L-122.23294556290818,-61.73447214555149M-122.23294556290818,-61.73447214555149L-162.8738745139968,-26.70815752645824M-198.83650347712756,25.35533382766882L-302.708591315156,18.308029251090346M-302.708591315156,3.702065292647926L-302.708591315156,18.308029251090346M-302.708591315156,18.308029251090346L-306.774951434367,21.812614716187152" style="fill:none;stroke:rgb(0,0,0);stroke-width:1;stroke-linecap:round"></path><path d="M-464.4213257888181,30.125618612795204L-372.3020734734605,36.375540434385194L-460.35496566960705,26.621033147698395z" style="fill:rgb(153,221,255); fill-opacity: 0.4"></path><path d="M-654.7595739882579,-64.3160061133869L-654.7595739882579,46.88394060716938L-622.9151342674154,-62.15548859174805z" style="fill:rgb(238,238,238); fill-opacity: 0.4"></path><path d="M-10.02209181370488,-54.121415744859554L-10.02209181370488,48.018313531590046M-10.02209181370488,48.018313531590046L-50.663020764793494,83.04462815068331" style="fill:none;stroke:rgb(0,0,0);stroke-width:1;stroke-linecap:round"></path><path d="M-464.4213257888181,30.125618612795204L-464.4213257888181,44.731582571237624L-372.3020734734605,36.375540434385194z" style="fill:rgb(153,221,255); fill-opacity: 0.4"></path><path d="M-198.83650347712756,10.749369869226395L-302.708591315156,3.702065292647926M-302.708591315156,3.702065292647926L-306.774951434367,7.206650757744729" style="fill:none;stroke:rgb(0,0,0);stroke-width:1;stroke-linecap:round"></path><path d="M-372.3020734734605,36.375540434385194L-368.2357133542495,32.870954969288384L-460.35496566960705,26.621033147698395z" style="fill:rgb(153,221,255); fill-opacity: 0.4"></path><path d="M-368.23571432954174,32.87095426954471L-368.23571432954174,47.47692101385366M-368.23571432954174,47.47692101385366L-372.30207444875265,50.98150647895047M-368.23571432954174,47.47692101385366L-312.2561471111837,61.06137372655561M-368.2357133542496,32.87095496928839L-368.2357133542496,47.47691892773081M-368.2357133542496,47.47691892773081L-372.3020734734605,50.98150439282761M-564.9430195212129,-58.22231310574158L-564.9430195212129,52.97763361481472M-564.9430195212129,52.97763361481472L-533.0985798003704,55.13815113645357" style="fill:none;stroke:rgb(0,0,0);stroke-width:1;stroke-linecap:round"></path><path d="M-372.3020734734605,50.98150439282761L-464.4213257888181,44.731582571237624L-368.2357133542495,47.47691892773081zM-302.708591315156,3.70206529264793L-302.70859131515596,18.30802925109035L-306.774951434367,7.206650757744733z" style="fill:rgb(153,221,255); fill-opacity: 0.4"></path><path d="M-654.7595739882579,-64.3160061133869L-622.9151342674154,-62.15548859174804M-368.2357133542496,32.87095496928839L-372.3020734734605,36.375540434385194M-368.23571432954174,32.87095426954471L-372.30207444875265,36.37553973464152M-368.23571432954174,32.87095426954471L-312.2561471111837,61.06137372655561" style="fill:none;stroke:rgb(0,0,0);stroke-width:1;stroke-linecap:round"></path><path d="M-368.2357137245182,32.87095494416714L-368.2357137245182,47.47691890260956L-372.30207384372915,50.981504367706364z" style="fill:rgb(255,187,187); fill-opacity: 0.4"></path><path d="M-372.3020734734605,50.98150439282761L-368.2357133542495,47.47691892773081L-368.2357133542495,32.870954969288384z" style="fill:rgb(153,221,255); fill-opacity: 0.4"></path><path d="M-10.02209181370488,-54.12141574485955L-10.02209181370488,48.01831353159005L-122.23294556290824,-61.734472145551486z" style="fill:rgb(238,238,238); fill-opacity: 0.4"></path><path d="M-302.70859131515596,18.30802925109035L-306.774951434367,21.812614716187152L-306.774951434367,7.206650757744733zM-464.4213257888181,44.731582571237624L-372.3020734734605,50.98150439282761L-372.3020734734605,36.375540434385194zM-198.83650347712754,25.35533382766882L-302.70859131515596,18.30802925109035L-302.708591315156,3.70206529264793z" style="fill:rgb(153,221,255); fill-opacity: 0.4"></path><path d="M-368.2357137245182,47.47691890260956L-368.2357137245182,32.87095494416714L-312.25614667730633,61.06137228200271z" style="fill:rgb(255,187,187); fill-opacity: 0.4"></path><path d="M-220.9544325604868,73.26293125637626L-180.09661886698646,38.04969489558421L-180.09661886698646,-67.43218275001826z" style="fill:rgb(238,238,238); fill-opacity: 0.4"></path><path d="M-533.0985798003704,-56.06179558410271L-533.0985798003704,55.13815113645357M-306.774951434367,7.206650757744729L-306.774951434367,21.812614716187152M-306.774951434367,21.812614716187152L-202.90286359633853,28.85991929276562" style="fill:none;stroke:rgb(0,0,0);stroke-width:1;stroke-linecap:round"></path><path d="M-306.774951434367,21.812614716187152L-302.70859131515596,18.30802925109035L-198.83650347712754,25.35533382766882z" style="fill:rgb(153,221,255); fill-opacity: 0.4"></path><path d="M-372.30207384372915,50.981504367706364L-368.2357137245182,47.47691890260956L-312.25614667730633,61.06137228200271zM-368.2357137245182,32.87095494416714L-372.30207384372915,50.981504367706364L-372.30207384372915,36.37554040926395z" style="fill:rgb(255,187,187); fill-opacity: 0.4"></path><path d="M-372.3020734734605,36.375540434385194L-372.3020734734605,50.98150439282761L-368.2357133542495,32.870954969288384z" style="fill:rgb(153,221,255); fill-opacity: 0.4"></path><path d="M-475.02351398999576,-50.85767277781384L-382.90426167463824,-44.60775095622385L-433.9544463857002,-86.25297795777422z" style="fill:rgb(238,238,238); fill-opacity: 0.4"></path><path d="M-306.774951434367,7.206650757744729L-202.90286359633853,14.253955334323203" style="fill:none;stroke:rgb(0,0,0);stroke-width:1;stroke-linecap:round"></path><path d="M-368.2357137245182,32.87095494416714L-372.30207384372915,36.37554040926395L-312.25614667730633,61.06137228200271z" style="fill:rgb(255,187,187); fill-opacity: 0.4"></path><path d="M-372.30207444875265,50.98150647895047L-372.30207444875265,36.37553973464152M-372.30207444875265,50.98150647895047L-312.2561471111837,61.06137372655561M-372.3020734734605,36.375540434385194L-372.3020734734605,50.98150439282761" style="fill:none;stroke:rgb(0,0,0);stroke-width:1;stroke-linecap:round"></path><path d="M-564.9430195212129,52.977633614814714L-533.0985798003703,55.13815113645358L-533.0985798003703,-56.06179558410272z" style="fill:rgb(238,238,238); fill-opacity: 0.4"></path><path d="M168.44432189115474,59.26480553848866L47.89470223077652,51.08599731368324M47.89470223077652,-49.22738472078868L47.89470223077652,51.08599731368324M47.89470223077652,51.08599731368324L7.3644229989351695,86.01694866281942" style="fill:none;stroke:rgb(0,0,0);stroke-width:1;stroke-linecap:round"></path><path d="M-220.9544325604868,-32.21894638922621L-180.09661886698646,-67.43218275001826L-283.9687067050149,-74.47948732659674z" style="fill:rgb(238,238,238); fill-opacity: 0.4"></path><path d="M-372.30207384372915,36.37554040926395L-372.30207384372915,50.981504367706364L-312.25614667730633,61.06137228200271z" style="fill:rgb(255,187,187); fill-opacity: 0.4"></path><path d="M-198.83650347712754,10.749369869226403L-198.83650347712754,25.35533382766882L-302.708591315156,3.70206529264793z" style="fill:rgb(153,221,255); fill-opacity: 0.4"></path><path d="M-372.30207444875265,36.37553973464152L-312.2561471111837,61.06137372655561" style="fill:none;stroke:rgb(0,0,0);stroke-width:1;stroke-linecap:round"></path><path d="M-306.774951434367,7.206650757744733L-202.9028635963385,14.253955334323207L-302.708591315156,3.70206529264793z" style="fill:rgb(153,221,255); fill-opacity: 0.4"></path><path d="M-382.90426167463824,-44.60775095622385L-382.90426167463824,63.872844575106164L-341.83519407034265,-80.00305613618423zM-564.9430195212129,-58.22231310574157L-564.9430195212129,52.977633614814714L-533.0985798003703,-56.06179558410272z" style="fill:rgb(238,238,238); fill-opacity: 0.4"></path><path d="M-306.774951434367,7.206650757744733L-306.774951434367,21.812614716187152L-202.9028635963385,14.253955334323207zM-202.9028635963385,14.253955334323207L-198.83650347712754,10.749369869226403L-302.708591315156,3.70206529264793zM-202.9028635963385,28.859919292765625L-306.774951434367,21.812614716187152L-198.83650347712754,25.35533382766882z" style="fill:rgb(153,221,255); fill-opacity: 0.4"></path><path d="M-198.83651445477946,10.749369338708398L-198.83651445477946,25.35533190421755M-198.83651445477946,25.35533190421755L-202.90287457399043,28.85991736931435M-198.83651445477946,25.35533190421755L-142.89575229961912,30.10645625040889M-198.83650347712756,10.749369869226395L-198.83650347712756,25.35533382766882M-198.83650347712756,25.35533382766882L-202.90286359633853,28.85991929276562M-475.02351398999576,-50.85767277781385L-475.02351398999576,57.62292275351617M-475.02351398999576,57.62292275351617L-382.90426167463824,63.87284457510615M-10.02209181370488,-54.121415744859554L-50.663020764793494,-19.0951011257663" style="fill:none;stroke:rgb(0,0,0);stroke-width:1;stroke-linecap:round"></path><path d="M-162.8738745139968,75.43157174999136L-122.23294556290824,40.405257130898114L-10.02209181370488,48.01831353159005zM-283.9687067050149,31.00239031900573L-324.82652039851524,66.2156266797978L-324.82652039851524,-39.26625096580469z" style="fill:rgb(238,238,238); fill-opacity: 0.4"></path><path d="M-564.9430195212129,-58.22231310574158L-533.0985798003704,-56.06179558410271M-198.83651445477946,10.749369338708398L-202.90287457399043,14.253954803805204M-198.83651445477946,10.749369338708398L-142.89575229961912,30.10645625040889M-198.83650347712756,10.749369869226395L-202.90286359633853,14.253955334323203" style="fill:none;stroke:rgb(0,0,0);stroke-width:1;stroke-linecap:round"></path><path d="M-306.774951434367,21.812614716187152L-202.9028635963385,28.859919292765625L-202.9028635963385,14.253955334323207z" style="fill:rgb(153,221,255); fill-opacity: 0.4"></path><path d="M-198.83650410724798,10.749369826475256L-198.83650410724798,25.35533378491768L-202.90286422645895,28.859919250014478z" style="fill:rgb(255,187,187); fill-opacity: 0.4"></path><path d="M-202.9028635963385,28.859919292765625L-198.83650347712754,25.35533382766882L-198.83650347712754,10.749369869226403z" style="fill:rgb(153,221,255); fill-opacity: 0.4"></path><path d="M-122.23294556290824,-61.734472145551486L-122.23294556290824,40.405257130898114L-162.8738745139968,-26.70815752645824z" style="fill:rgb(238,238,238); fill-opacity: 0.4"></path><path d="M-198.83650410724798,25.35533378491768L-198.83650410724798,10.749369826475256L-142.89574195399257,30.106456534399715z" style="fill:rgb(255,187,187); fill-opacity: 0.4"></path><path d="M168.44432189115477,59.26480553848867L47.89470223077652,51.08599731368326L47.89470223077652,-49.22738472078868z" style="fill:rgb(238,238,238); fill-opacity: 0.4"></path><path d="M-198.83650410724798,10.749369826475256L-202.90286422645895,28.859919250014478L-202.90286422645897,14.253955291572064z" style="fill:rgb(255,187,187); fill-opacity: 0.4"></path><path d="M-202.9028635963385,14.253955334323207L-202.9028635963385,28.859919292765625L-198.83650347712754,10.749369869226403z" style="fill:rgb(153,221,255); fill-opacity: 0.4"></path><path d="M-202.90286422645895,28.859919250014478L-198.83650410724798,25.35533378491768L-142.89574195399257,30.106456534399715z" style="fill:rgb(255,187,187); fill-opacity: 0.4"></path><path d="M-220.9544325604868,73.26293125637626L-324.82652039851524,66.2156266797978L-180.09661886698646,38.04969489558421z" style="fill:rgb(238,238,238); fill-opacity: 0.4"></path><path d="M-202.90287457399043,28.85991736931435L-202.90287457399043,14.253954803805204M-202.90287457399043,28.85991736931435L-142.89575229961912,30.10645625040889M-202.90286359633853,14.253955334323203L-202.90286359633853,28.85991929276562" style="fill:none;stroke:rgb(0,0,0);stroke-width:1;stroke-linecap:round"></path><path d="M-198.83650410724798,10.749369826475256L-202.90286422645897,14.253955291572064L-142.89574195399257,30.106456534399715z" style="fill:rgb(255,187,187); fill-opacity: 0.4"></path><path d="M168.44432189115474,-41.048576495983276L47.89470223077652,-49.22738472078868M47.89470223077652,-49.22738472078868L7.3644229989351695,-14.296433371652508M-202.90287457399043,14.253954803805204L-142.89575229961912,30.10645625040889" style="fill:none;stroke:rgb(0,0,0);stroke-width:1;stroke-linecap:round"></path><path d="M-202.90286422645897,14.253955291572064L-202.90286422645895,28.859919250014478L-142.89574195399257,30.106456534399715z" style="fill:rgb(255,187,187); fill-opacity: 0.4"></path><path d="M-28.702804969146342,5.269589963880734L-140.91365871834967,-2.343466436811209M-140.91365871834967,-11.107044811876662L-140.91365871834967,-2.343466436811209M-140.91365871834967,-2.343466436811209L-143.35347478987626,-0.24071515775312552M168.44432189115474,-41.048576495983276L168.44432189115474,59.26480553848866M168.44432189115474,59.26480553848866L127.9140426593134,94.19575688762484M-382.90426167463824,-44.60775095622386L-382.90426167463824,63.87284457510615" style="fill:none;stroke:rgb(0,0,0);stroke-width:1;stroke-linecap:round"></path><path d="M-475.02351398999576,57.62292275351618L-382.90426167463824,63.872844575106164L-382.90426167463824,-44.60775095622385z" style="fill:rgb(238,238,238); fill-opacity: 0.4"></path><path d="M-28.702804969146342,-3.493988411184719L-140.91365871834967,-11.107044811876662M-140.91365871834967,-11.107044811876662L-143.35347478987626,-9.00429353281858" style="fill:none;stroke:rgb(0,0,0);stroke-width:1;stroke-linecap:round"></path><path d="M-475.02351398999576,-50.85767277781384L-475.02351398999576,57.62292275351618L-382.90426167463824,-44.60775095622385z" style="fill:rgb(238,238,238); fill-opacity: 0.4"></path><path d="M-475.02351398999576,-50.85767277781385L-382.90426167463824,-44.60775095622386" style="fill:none;stroke:rgb(0,0,0);stroke-width:1;stroke-linecap:round"></path><path d="M-140.91365871834964,-11.107044811876664L-140.91365871834964,-2.3434664368112093L-143.35347478987626,-9.00429353281858z" style="fill:rgb(153,221,255); fill-opacity: 0.4"></path><path d="M-324.82652039851524,-39.26625096580469L-220.9544325604868,-32.21894638922621L-283.9687067050149,-74.47948732659674zM168.44432189115477,-41.048576495983276L168.44432189115477,59.26480553848867L47.89470223077652,-49.22738472078868z" style="fill:rgb(238,238,238); fill-opacity: 0.4"></path><path d="M-140.91365871834964,-2.3434664368112093L-143.35347478987626,-0.24071515775312602L-143.35347478987626,-9.00429353281858z" style="fill:rgb(153,221,255); fill-opacity: 0.4"></path><path d="M-50.663020764793444,83.04462815068331L-10.02209181370488,48.01831353159005L-10.02209181370488,-54.12141574485955z" style="fill:rgb(238,238,238); fill-opacity: 0.4"></path><path d="M-143.35347478987626,-9.00429353281858L-143.35347478987626,-0.24071515775312552M-143.35347478987626,-0.24071515775312552L-31.14262104067292,7.372341242938818M158.63082401811053,35.21540604434691L38.0812043577323,27.036597819541498M38.0812043577323,18.27301944447605L38.0812043577323,27.036597819541498M38.0812043577323,27.036597819541498L35.641388286205704,29.13934909859958M-143.35347478987626,-9.00429353281858L-31.14262104067292,-1.3912371321266355" style="fill:none;stroke:rgb(0,0,0);stroke-width:1;stroke-linecap:round"></path><path d="M-28.70280496914628,5.269589963880736L-140.91365871834964,-2.3434664368112093L-140.91365871834964,-11.107044811876664z" style="fill:rgb(153,221,255); fill-opacity: 0.4"></path><path d="M158.63082401811053,26.45182766928146L38.0812043577323,18.27301944447605M38.0812043577323,18.27301944447605L35.641388286205704,20.37577072353413" style="fill:none;stroke:rgb(0,0,0);stroke-width:1;stroke-linecap:round"></path><path d="M-143.35347478987626,-0.24071515775312602L-140.91365871834964,-2.3434664368112093L-28.70280496914628,5.269589963880736z" style="fill:rgb(153,221,255); fill-opacity: 0.4"></path><path d="M-50.663020764793444,-19.095101125766295L-10.02209181370488,-54.12141574485955L-122.23294556290824,-61.734472145551486z" style="fill:rgb(238,238,238); fill-opacity: 0.4"></path><path d="M38.08120435773236,18.273019444476056L38.08120435773236,27.036597819541505L35.641388286205796,20.375770723534135zM38.08120435773236,27.036597819541505L35.641388286205796,29.139349098599585L35.641388286205796,20.375770723534135z" style="fill:rgb(153,221,255); fill-opacity: 0.4"></path><path d="M-220.9544325604868,-32.21894638922621L-220.9544325604868,73.26293125637626L-180.09661886698646,-67.43218275001826z" style="fill:rgb(238,238,238); fill-opacity: 0.4"></path><path d="M346.9099724721366,70.45104098555998L226.3603528117584,62.27223276075457M226.3603528117584,-36.092970516269084L226.3603528117584,62.27223276075457M226.3603528117584,62.27223276075457L185.9422527757411,97.10650266318021M-324.8265203985152,-39.26625096580468L-324.8265203985152,66.2156266797978M-324.8265203985152,66.2156266797978L-220.95443256048677,73.26293125637626M35.641388286205704,20.37577072353413L35.641388286205704,29.13934909859958M35.641388286205704,29.13934909859958L156.1910079465839,37.318157323404996" style="fill:none;stroke:rgb(0,0,0);stroke-width:1;stroke-linecap:round"></path><path d="M-143.35347478987626,-9.00429353281858L-31.142621040672893,-1.391237132126633L-140.91365871834964,-11.107044811876664zM-143.35347478987626,-9.00429353281858L-143.35347478987626,-0.24071515775312602L-31.142621040672893,-1.391237132126633z" style="fill:rgb(153,221,255); fill-opacity: 0.4"></path><path d="M35.641388286205704,20.37577072353413L156.1910079465839,28.554578948339543" style="fill:none;stroke:rgb(0,0,0);stroke-width:1;stroke-linecap:round"></path><path d="M158.6308240181106,35.21540604434691L38.08120435773236,27.036597819541505L38.08120435773236,18.273019444476056zM-28.70280496914628,-3.4939884111847186L-28.70280496914628,5.269589963880736L-140.91365871834964,-11.107044811876664z" style="fill:rgb(153,221,255); fill-opacity: 0.4"></path><path d="M-122.23294556290824,40.405257130898114L-162.8738745139968,75.43157174999136L-162.8738745139968,-26.70815752645824z" style="fill:rgb(238,238,238); fill-opacity: 0.4"></path><path d="M35.641388286205796,29.139349098599585L38.08120435773236,27.036597819541505L158.6308240181106,35.21540604434691z" style="fill:rgb(153,221,255); fill-opacity: 0.4"></path><path d="M7.3644229989351695,86.01694866281943L47.89470223077652,51.08599731368326L168.44432189115477,59.26480553848867z" style="fill:rgb(238,238,238); fill-opacity: 0.4"></path><path d="M168.44432189115474,-41.048576495983276L127.9140426593134,-6.11762514684709" style="fill:none;stroke:rgb(0,0,0);stroke-width:1;stroke-linecap:round"></path><path d="M-31.142621040672893,-1.391237132126633L-28.70280496914628,-3.4939884111847186L-140.91365871834964,-11.107044811876664zM-31.142621040672893,7.37234124293882L-143.35347478987626,-0.24071515775312602L-28.70280496914628,5.269589963880736zM35.641388286205796,20.375770723534135L156.19100794658402,28.554578948339554L38.08120435773236,18.273019444476056zM-143.35347478987626,-0.24071515775312602L-31.142621040672893,7.37234124293882L-31.142621040672893,-1.391237132126633zM35.641388286205796,20.375770723534135L35.641388286205796,29.139349098599585L156.19100794658402,28.554578948339554z" style="fill:rgb(153,221,255); fill-opacity: 0.4"></path><path d="M-28.702804969146342,-3.493988411184719L-28.702804969146342,5.269589963880734M-28.702804969146342,5.269589963880734L-31.14262104067292,7.372341242938818M-28.702783152590452,-3.493987146193084L-28.702783152590452,5.2695912288723665M-28.702783152590452,5.2695912288723665L-31.14259917564227,7.372342466152534M-28.702783152590452,5.2695912288723665L28.04828104873563,0.7013200315101069" style="fill:none;stroke:rgb(0,0,0);stroke-width:1;stroke-linecap:round"></path><path d="M47.89470223077652,-49.22738472078868L47.89470223077652,51.08599731368326L7.3644229989351695,-14.296433371652505z" style="fill:rgb(238,238,238); fill-opacity: 0.4"></path><path d="M-28.702804969146342,-3.493988411184719L-31.14262104067292,-1.3912371321266355M-28.702783152590452,-3.493987146193084L-31.14259917564227,-1.391235908912917M-28.702783152590452,-3.493987146193084L28.04828104873563,0.7013200315101069" style="fill:none;stroke:rgb(0,0,0);stroke-width:1;stroke-linecap:round"></path><path d="M158.6308240181106,26.451827669281464L158.6308240181106,35.21540604434691L38.08120435773236,18.273019444476056zM-31.142621040672893,7.37234124293882L-28.70280496914628,5.269589963880736L-28.70280496914628,-3.4939884111847186z" style="fill:rgb(153,221,255); fill-opacity: 0.4"></path><path d="M-28.70280398485628,-3.493988344404587L-28.70280398485628,5.269590030660868L-31.1426200563829,7.372341309718951z" style="fill:rgb(255,187,187); fill-opacity: 0.4"></path><path d="M-50.663020764793444,83.04462815068331L-162.8738745139968,75.43157174999136L-10.02209181370488,48.01831353159005zM346.9099724721366,70.45104098555998L226.36035281175833,62.27223276075457L226.36035281175833,-36.092970516269084z" style="fill:rgb(238,238,238); fill-opacity: 0.4"></path><path d="M156.19100794658402,28.554578948339554L158.6308240181106,26.451827669281464L38.08120435773236,18.273019444476056zM156.19100794658402,37.318157323404996L35.641388286205796,29.139349098599585L158.6308240181106,35.21540604434691zM-31.142621040672893,-1.391237132126633L-31.142621040672893,7.37234124293882L-28.70280496914628,-3.4939884111847186z" style="fill:rgb(153,221,255); fill-opacity: 0.4"></path><path d="M-28.70280398485628,-3.493988344404587L-31.1426200563829,7.372341309718951L-31.1426200563829,-1.3912370653465014zM-28.70280398485628,5.269590030660868L-28.70280398485628,-3.493988344404587L28.0482602148439,0.7013192319461548z" style="fill:rgb(255,187,187); fill-opacity: 0.4"></path><path d="M-31.14262104067292,-1.3912371321266355L-31.14262104067292,7.372341242938818M-31.14259917564227,7.372342466152534L-31.14259917564227,-1.391235908912917M-31.14259917564227,7.372342466152534L28.04828104873563,0.7013200315101069" style="fill:none;stroke:rgb(0,0,0);stroke-width:1;stroke-linecap:round"></path><path d="M35.641388286205796,29.139349098599585L156.19100794658402,37.318157323404996L156.19100794658402,28.554578948339554z" style="fill:rgb(153,221,255); fill-opacity: 0.4"></path><path d="M-31.1426200563829,7.372341309718951L-28.70280398485628,5.269590030660868L28.0482602148439,0.7013192319461548z" style="fill:rgb(255,187,187); fill-opacity: 0.4"></path><path d="M346.9099724721366,-27.91416229146367L226.3603528117584,-36.092970516269084M226.3603528117584,-36.092970516269084L185.9422527757411,-1.2587006138434507M-31.14259917564227,-1.391235908912917L28.04828104873563,0.7013200315101069" style="fill:none;stroke:rgb(0,0,0);stroke-width:1;stroke-linecap:round"></path><path d="M-28.70280398485628,-3.493988344404587L-31.1426200563829,-1.3912370653465014L28.0482602148439,0.7013192319461548z" style="fill:rgb(255,187,187); fill-opacity: 0.4"></path><path d="M158.63082015386811,26.451827570283363L158.63082015386811,35.215405945348806M158.63082015386811,35.215405945348806L156.19100408234144,37.318157224406896M158.63082015386811,35.215405945348806L215.35747618346525,41.77409749196049M158.63082401811053,26.45182766928146L158.63082401811053,35.21540604434691M158.63082401811053,35.21540604434691L156.1910079465839,37.318157323404996M-324.8265203985152,-39.26625096580468L-220.95443256048677,-32.21894638922621" style="fill:none;stroke:rgb(0,0,0);stroke-width:1;stroke-linecap:round"></path><path d="M-324.82652039851524,-39.26625096580469L-324.82652039851524,66.2156266797978L-220.9544325604868,-32.21894638922621z" style="fill:rgb(238,238,238); fill-opacity: 0.4"></path><path d="M-31.1426200563829,-1.3912370653465014L-31.1426200563829,7.372341309718951L28.0482602148439,0.7013192319461548z" style="fill:rgb(255,187,187); fill-opacity: 0.4"></path><path d="M158.63082015386811,26.451827570283363L156.19100408234144,28.554578849341443M158.63082015386811,26.451827570283363L215.35747618346525,41.77409749196049M158.63082401811053,26.45182766928146L156.1910079465839,28.554578948339543" style="fill:none;stroke:rgb(0,0,0);stroke-width:1;stroke-linecap:round"></path><path d="M-324.82652039851524,66.2156266797978L-220.9544325604868,73.26293125637626L-220.9544325604868,-32.21894638922621z" style="fill:rgb(238,238,238); fill-opacity: 0.4"></path><path d="M-220.95443256048677,-32.21894638922621L-220.95443256048677,73.26293125637626" style="fill:none;stroke:rgb(0,0,0);stroke-width:1;stroke-linecap:round"></path><path d="M156.19100794658402,37.318157323404996L158.6308240181106,35.21540604434691L158.6308240181106,26.451827669281464z" style="fill:rgb(153,221,255); fill-opacity: 0.4"></path><path d="M158.6308266168112,26.451827845592877L158.6308266168112,35.21540622065832L156.19101054528463,37.31815749971641z" style="fill:rgb(255,187,187); fill-opacity: 0.4"></path><path d="M346.9099724721366,-27.91416229146367L346.9099724721366,70.45104098555998M346.9099724721366,70.45104098555998L306.49187243611937,105.28531088798562" style="fill:none;stroke:rgb(0,0,0);stroke-width:1;stroke-linecap:round"></path><path d="M156.19100794658402,28.554578948339554L156.19100794658402,37.318157323404996L158.6308240181106,26.451827669281464z" style="fill:rgb(153,221,255); fill-opacity: 0.4"></path><path d="M158.6308266168112,26.451827845592877L156.19101054528463,37.31815749971641L156.19101054528463,28.554579124650964zM158.6308266168112,35.21540622065832L158.6308266168112,26.451827845592877L215.3574828732534,41.7740978585066z" style="fill:rgb(255,187,187); fill-opacity: 0.4"></path><path d="M-162.8738745139968,-26.70815752645824L-50.663020764793444,-19.095101125766295L-122.23294556290824,-61.734472145551486z" style="fill:rgb(238,238,238); fill-opacity: 0.4"></path><path d="M156.19100408234144,37.318157224406896L156.19100408234144,28.554578849341443M156.19100408234144,37.318157224406896L215.35747618346525,41.77409749196049M156.1910079465839,28.554578948339543L156.1910079465839,37.318157323404996" style="fill:none;stroke:rgb(0,0,0);stroke-width:1;stroke-linecap:round"></path><path d="M156.19101054528463,37.31815749971641L158.6308266168112,35.21540622065832L215.3574828732534,41.7740978585066z" style="fill:rgb(255,187,187); fill-opacity: 0.4"></path><path d="M156.19100408234144,28.554578849341443L215.35747618346525,41.77409749196049" style="fill:none;stroke:rgb(0,0,0);stroke-width:1;stroke-linecap:round"></path><path d="M158.6308266168112,26.451827845592877L156.19101054528463,28.554579124650964L215.3574828732534,41.7740978585066z" style="fill:rgb(255,187,187); fill-opacity: 0.4"></path><path d="M346.9099724721366,-27.91416229146367L346.9099724721366,70.45104098555998L226.36035281175833,-36.092970516269084z" style="fill:rgb(238,238,238); fill-opacity: 0.4"></path><path d="M156.19101054528463,28.554579124650964L156.19101054528463,37.31815749971641L215.3574828732534,41.7740978585066z" style="fill:rgb(255,187,187); fill-opacity: 0.4"></path><path d="M127.9140426593134,94.19575688762484L168.44432189115477,59.26480553848867L168.44432189115477,-41.048576495983276zM127.9140426593134,-6.11762514684709L168.44432189115477,-41.048576495983276L47.89470223077652,-49.22738472078868z" style="fill:rgb(238,238,238); fill-opacity: 0.4"></path><path d="M-162.8738745139968,-26.70815752645824L-162.8738745139968,75.43157174999135M-162.8738745139968,75.43157174999135L-50.663020764793494,83.04462815068331" style="fill:none;stroke:rgb(0,0,0);stroke-width:1;stroke-linecap:round"></path><path d="M-50.663020764793444,-19.095101125766295L-50.663020764793444,83.04462815068331L-10.02209181370488,-54.12141574485955zM47.89470223077652,51.08599731368326L7.3644229989351695,86.01694866281943L7.3644229989351695,-14.296433371652505z" style="fill:rgb(238,238,238); fill-opacity: 0.4"></path><path d="M346.9099724721366,-27.91416229146367L306.49187243611937,6.920107610961967" style="fill:none;stroke:rgb(0,0,0);stroke-width:1;stroke-linecap:round"></path><path d="M185.9422527757411,97.10650266318021L226.36035281175833,62.27223276075457L346.9099724721366,70.45104098555998zM226.36035281175833,-36.092970516269084L226.36035281175833,62.27223276075457L185.9422527757411,-1.2587006138434507zM127.9140426593134,94.19575688762484L7.3644229989351695,86.01694866281943L168.44432189115477,59.26480553848867z" style="fill:rgb(238,238,238); fill-opacity: 0.4"></path><path d="M-162.8738745139968,-26.70815752645824L-50.663020764793494,-19.0951011257663" style="fill:none;stroke:rgb(0,0,0);stroke-width:1;stroke-linecap:round"></path><path d="M-162.8738745139968,-26.70815752645824L-162.8738745139968,75.43157174999136L-50.663020764793444,-19.095101125766295zM-162.8738745139968,75.43157174999136L-50.663020764793444,83.04462815068331L-50.663020764793444,-19.095101125766295z" style="fill:rgb(238,238,238); fill-opacity: 0.4"></path><path d="M-50.663020764793494,-19.0951011257663L-50.663020764793494,83.04462815068331M417.6290326755096,224.750271457795L397.5374284773379,223.38713669114463M397.5374284773379,-141.6448890144934L397.5374284773379,223.38713669114463M397.5374284773379,223.38713669114463L391.90025635830295,228.24552377282112" style="fill:none;stroke:rgb(0,0,0);stroke-width:1;stroke-linecap:round"></path><path d="M7.3644229989351695,-14.296433371652505L127.9140426593134,-6.11762514684709L47.89470223077652,-49.22738472078868z" style="fill:rgb(238,238,238); fill-opacity: 0.4"></path><path d="M417.6290326755096,-140.28175424784303L417.6290326755096,224.750271457795M417.6290326755096,224.750271457795L411.9918605564746,229.6086585394715" style="fill:none;stroke:rgb(0,0,0);stroke-width:1;stroke-linecap:round"></path><path d="M391.900256358303,228.24552377282112L397.53742847733804,223.38713669114463L417.6290326755097,224.750271457795zM306.49187243611937,105.28531088798563L346.9099724721366,70.45104098555998L346.9099724721366,-27.91416229146367z" style="fill:rgb(238,238,238); fill-opacity: 0.4"></path><path d="M7.3644229989351695,-14.296433371652508L7.3644229989351695,86.01694866281942M7.3644229989351695,86.01694866281942L127.9140426593134,94.19575688762484" style="fill:none;stroke:rgb(0,0,0);stroke-width:1;stroke-linecap:round"></path><path d="M306.49187243611937,6.920107610961967L346.9099724721366,-27.91416229146367L226.36035281175833,-36.092970516269084zM127.9140426593134,-6.11762514684709L127.9140426593134,94.19575688762484L168.44432189115477,-41.048576495983276zM411.9918605564746,229.6086585394715L391.900256358303,228.24552377282112L417.6290326755097,224.750271457795z" style="fill:rgb(238,238,238); fill-opacity: 0.4"></path><path d="M391.90025635830295,-136.78650193281692L391.90025635830295,228.24552377282112M391.90025635830295,228.24552377282112L411.9918605564746,229.6086585394715M495.69275213958736,230.04658174571168L475.6011479414157,228.6834469790613M475.6011479414157,-136.34857872657673L475.6011479414157,228.6834469790613M475.6011479414157,228.6834469790613L469.96397582238075,233.54183406073776" style="fill:none;stroke:rgb(0,0,0);stroke-width:1;stroke-linecap:round"></path><path d="M226.36035281175833,62.27223276075457L185.9422527757411,97.10650266318021L185.9422527757411,-1.2587006138434507z" style="fill:rgb(238,238,238); fill-opacity: 0.4"></path><path d="M411.9918605564746,-135.42336716616654L411.9918605564746,229.6086585394715M495.69275213958736,-134.98544395992636L495.69275213958736,230.04658174571168M495.69275213958736,230.04658174571168L490.0555800205524,234.90496882738813" style="fill:none;stroke:rgb(0,0,0);stroke-width:1;stroke-linecap:round"></path><path d="M469.9639758223807,233.54183406073773L475.6011479414157,228.68344697906127L495.6927521395874,230.04658174571168zM417.6290326755097,224.750271457795L397.53742847733804,223.38713669114463L397.53742847733804,-141.6448890144934zM306.49187243611937,105.28531088798563L185.9422527757411,97.10650266318021L346.9099724721366,70.45104098555998z" style="fill:rgb(238,238,238); fill-opacity: 0.4"></path><path d="M7.3644229989351695,-14.296433371652508L127.9140426593134,-6.11762514684709" style="fill:none;stroke:rgb(0,0,0);stroke-width:1;stroke-linecap:round"></path><path d="M490.0555800205524,234.90496882738813L469.9639758223807,233.54183406073773L495.6927521395874,230.04658174571168z" style="fill:rgb(238,238,238); fill-opacity: 0.4"></path><path d="M339.6453328903659,39.563800632275345L372.49619823899747,41.79260009644877" style="fill:none;stroke:rgb(0,0,0);stroke-width:1;stroke-linecap:round"></path><path d="M7.3644229989351695,-14.296433371652505L7.3644229989351695,86.01694866281943L127.9140426593134,-6.11762514684709z" style="fill:rgb(238,238,238); fill-opacity: 0.4"></path><path d="M469.96397582238075,-131.49019164490025L469.96397582238075,233.54183406073776M469.96397582238075,233.54183406073776L490.0555800205524,234.90496882738813" style="fill:none;stroke:rgb(0,0,0);stroke-width:1;stroke-linecap:round"></path><path d="M411.9918605564746,229.6086585394715L417.6290326755097,224.750271457795L417.6290326755097,-140.281754247843zM7.3644229989351695,86.01694866281943L127.9140426593134,94.19575688762484L127.9140426593134,-6.11762514684709zM397.53742847733804,223.38713669114463L391.900256358303,228.24552377282112L391.900256358303,-136.78650193281692z" style="fill:rgb(238,238,238); fill-opacity: 0.4"></path><path d="M127.9140426593134,-6.11762514684709L127.9140426593134,94.19575688762484M490.0555800205524,-130.12705687824987L490.0555800205524,234.90496882738813" style="fill:none;stroke:rgb(0,0,0);stroke-width:1;stroke-linecap:round"></path><path d="M185.9422527757411,-1.2587006138434507L306.49187243611937,6.920107610961967L226.36035281175833,-36.092970516269084z" style="fill:rgb(238,238,238); fill-opacity: 0.4"></path><path d="M373.6912714764043,34.85439169436541L371.3011250015906,36.91433531704427L391.820236679369,43.10365860478608zM370.56252904628695,45.715875160888366L372.49619823899747,49.09558207566997L391.820236679369,43.10365860478608z" style="fill:rgb(0,0,0)"></path><path d="M495.6927521395874,230.04658174571168L475.6011479414157,228.68344697906127L475.6011479414157,-136.34857872657673zM391.900256358303,228.24552377282112L411.9918605564746,229.6086585394715L411.9918605564746,-135.4233671661665z" style="fill:rgb(238,238,238); fill-opacity: 0.4"></path><path d="M371.3011250015906,36.91433531704427L370.56252904628695,45.715875160888366L391.820236679369,43.10365860478608z" style="fill:rgb(0,0,0)"></path><path d="M417.7090523544437,44.860110920192L450.5599177030752,47.088910384365434M185.9422527757411,-1.2587006138434507L185.9422527757411,97.10650266318021M185.9422527757411,97.10650266318021L306.49187243611937,105.28531088798562" style="fill:none;stroke:rgb(0,0,0);stroke-width:1;stroke-linecap:round"></path><path d="M490.0555800205524,234.90496882738813L495.6927521395874,230.04658174571168L495.6927521395874,-134.98544395992633zM306.49187243611937,6.920107610961967L306.49187243611937,105.28531088798563L346.9099724721366,-27.91416229146367zM417.6290326755097,-140.281754247843L417.6290326755097,224.750271457795L397.53742847733804,-141.6448890144934zM475.6011479414157,228.68344697906127L469.9639758223807,233.54183406073773L469.9639758223807,-131.49019164490025zM397.53742847733804,-141.6448890144934L397.53742847733804,223.38713669114463L391.900256358303,-136.78650193281692z" style="fill:rgb(238,238,238); fill-opacity: 0.4"></path><path d="M573.756471603665,120.08982708804258L553.6648674054934,118.7266923213922M553.6648674054934,-15.799203493074321L553.6648674054934,118.7266923213922M553.6648674054934,118.7266923213922L548.0276952864584,123.58507940306868" style="fill:none;stroke:rgb(0,0,0);stroke-width:1;stroke-linecap:round"></path><path d="M451.75499094048195,40.15070198228209L449.3648444656683,42.21064560496094L469.88395614344665,48.39996889270275zM448.62624851036463,51.01218544880504L450.55991770307514,54.39189236358664L469.88395614344665,48.39996889270275z" style="fill:rgb(0,0,0)"></path><path d="M469.9639758223807,233.54183406073773L490.0555800205524,234.90496882738813L490.0555800205524,-130.12705687824987z" style="fill:rgb(238,238,238); fill-opacity: 0.4"></path><path d="M449.3648444656683,42.21064560496094L448.62624851036463,51.01218544880504L469.88395614344665,48.39996889270275z" style="fill:rgb(0,0,0)"></path><path d="M573.756471603665,-14.436068726423946L573.756471603665,120.08982708804258M573.756471603665,120.08982708804258L568.11929948463,124.94821416971905" style="fill:none;stroke:rgb(0,0,0);stroke-width:1;stroke-linecap:round"></path><path d="M411.9918605564746,-135.4233671661665L411.9918605564746,229.6086585394715L417.6290326755097,-140.281754247843zM548.0276952864584,123.58507940306866L553.6648674054935,118.72669232139219L573.7564716036652,120.08982708804258zM391.900256358303,-136.78650193281692L391.900256358303,228.24552377282112L411.9918605564746,-135.4233671661665z" style="fill:rgb(238,238,238); fill-opacity: 0.4"></path><path d="M495.7727718185214,50.15642120810866L528.6236371671529,52.38522067228209" style="fill:none;stroke:rgb(0,0,0);stroke-width:1;stroke-linecap:round"></path><path d="M573.7564716036652,120.08982708804258L553.6648674054935,118.72669232139219L553.6648674054935,-15.799203493074325zM495.6927521395874,-134.98544395992633L495.6927521395874,230.04658174571168L475.6011479414157,-136.34857872657673z" style="fill:rgb(238,238,238); fill-opacity: 0.4"></path><path d="M185.9422527757411,-1.2587006138434507L306.49187243611937,6.920107610961967" style="fill:none;stroke:rgb(0,0,0);stroke-width:1;stroke-linecap:round"></path><path d="M568.1192994846301,124.94821416971905L548.0276952864584,123.58507940306866L573.7564716036652,120.08982708804258zM475.6011479414157,-136.34857872657673L475.6011479414157,228.68344697906127L469.9639758223807,-131.49019164490025zM185.9422527757411,-1.2587006138434507L185.9422527757411,97.10650266318021L306.49187243611937,6.920107610961967z" style="fill:rgb(238,238,238); fill-opacity: 0.4"></path><path d="M548.0276952864584,-10.940816411397845L548.0276952864584,123.58507940306868M548.0276952864584,123.58507940306868L568.11929948463,124.94821416971905M417.6290326755096,-140.28175424784303L397.5374284773379,-141.6448890144934M397.5374284773379,-141.6448890144934L391.90025635830295,-136.78650193281692" style="fill:none;stroke:rgb(0,0,0);stroke-width:1;stroke-linecap:round"></path><path d="M185.9422527757411,97.10650266318021L306.49187243611937,105.28531088798563L306.49187243611937,6.920107610961967z" style="fill:rgb(238,238,238); fill-opacity: 0.4"></path><path d="M651.8201910677428,125.38613737595924L631.7285868695711,124.02300260930886M631.7285868695711,-10.502893205157662L631.7285868695711,124.02300260930886M631.7285868695711,124.02300260930886L626.0914147505362,128.88138969098534M306.49187243611937,6.920107610961967L306.49187243611937,105.28531088798562" style="fill:none;stroke:rgb(0,0,0);stroke-width:1;stroke-linecap:round"></path><path d="M568.1192994846301,124.94821416971905L573.7564716036652,120.08982708804258L573.7564716036652,-14.436068726423942z" style="fill:rgb(238,238,238); fill-opacity: 0.4"></path><path d="M529.8187104045596,45.44701227019874L527.4285639297459,47.5069558928776L547.9476756075243,53.69627918061941zM526.6899679744423,56.308495736721696L528.6236371671528,59.688202651503296L547.9476756075243,53.69627918061941z" style="fill:rgb(0,0,0)"></path><path d="M553.6648674054935,118.72669232139219L548.0276952864584,123.58507940306866L548.0276952864584,-10.940816411397849z" style="fill:rgb(238,238,238); fill-opacity: 0.4"></path><path d="M568.11929948463,-9.577681644747472L568.11929948463,124.94821416971905M417.6290326755096,-140.28175424784303L411.9918605564746,-135.42336716616654" style="fill:none;stroke:rgb(0,0,0);stroke-width:1;stroke-linecap:round"></path><path d="M573.7564716036652,-14.436068726423942L573.7564716036652,120.08982708804258L553.6648674054935,-15.799203493074325z" style="fill:rgb(238,238,238); fill-opacity: 0.4"></path><path d="M527.4285639297459,47.5069558928776L526.6899679744423,56.308495736721696L547.9476756075243,53.69627918061941z" style="fill:rgb(0,0,0)"></path><path d="M651.8201910677428,-9.139758438507288L651.8201910677428,125.38613737595924M651.8201910677428,125.38613737595924L646.1830189487079,130.24452445763572" style="fill:none;stroke:rgb(0,0,0);stroke-width:1;stroke-linecap:round"></path><path d="M553.6648674054935,-15.799203493074325L553.6648674054935,118.72669232139219L548.0276952864584,-10.940816411397849zM490.0555800205524,-130.12705687824987L490.0555800205524,234.90496882738813L495.6927521395874,-134.98544395992633zM626.0914147505362,128.88138969098532L631.7285868695712,124.02300260930885L651.8201910677428,125.38613737595922zM411.9918605564746,-135.4233671661665L417.6290326755097,-140.281754247843L397.53742847733804,-141.6448890144934zM469.9639758223807,-131.49019164490025L469.9639758223807,233.54183406073773L490.0555800205524,-130.12705687824987z" style="fill:rgb(238,238,238); fill-opacity: 0.4"></path><path d="M573.8364912825991,55.452731496025315L606.6873566312306,57.68153096019875M573.756471603665,-14.436068726423946L553.6648674054934,-15.799203493074321M553.6648674054934,-15.799203493074321L548.0276952864584,-10.940816411397845" style="fill:none;stroke:rgb(0,0,0);stroke-width:1;stroke-linecap:round"></path><path d="M651.8201910677428,125.38613737595922L631.7285868695712,124.02300260930885L631.7285868695712,-10.502893205157667zM548.0276952864584,123.58507940306866L568.1192994846301,124.94821416971905L568.1192994846301,-9.577681644747468zM391.900256358303,-136.78650193281692L411.9918605564746,-135.4233671661665L397.53742847733804,-141.6448890144934zM646.1830189487077,130.2445244576357L626.0914147505362,128.88138969098532L651.8201910677428,125.38613737595922z" style="fill:rgb(238,238,238); fill-opacity: 0.4"></path><path d="M573.756471603665,-14.436068726423946L568.11929948463,-9.577681644747472M391.90025635830295,-136.78650193281692L411.9918605564746,-135.42336716616654M626.0914147505362,-5.644506123481188L626.0914147505362,128.88138969098534M626.0914147505362,128.88138969098534L646.1830189487079,130.24452445763572" style="fill:none;stroke:rgb(0,0,0);stroke-width:1;stroke-linecap:round"></path><path d="M568.1192994846301,-9.577681644747468L568.1192994846301,124.94821416971905L573.7564716036652,-14.436068726423942z" style="fill:rgb(238,238,238); fill-opacity: 0.4"></path><path d="M495.69275213958736,-134.98544395992636L475.6011479414157,-136.34857872657673M475.6011479414157,-136.34857872657673L469.96397582238075,-131.49019164490025" style="fill:none;stroke:rgb(0,0,0);stroke-width:1;stroke-linecap:round"></path><path d="M548.0276952864584,-10.940816411397849L548.0276952864584,123.58507940306866L568.1192994846301,-9.577681644747468zM568.1192994846301,-9.577681644747468L573.7564716036652,-14.436068726423942L553.6648674054935,-15.799203493074325zM646.1830189487077,130.2445244576357L651.8201910677428,125.38613737595922L651.8201910677428,-9.139758438507291z" style="fill:rgb(238,238,238); fill-opacity: 0.4"></path><path d="M607.8824298686374,50.7433225581154L605.4922833938238,52.80326618079426L626.0113950716021,58.99258946853605zM604.75368743852,61.60480602463836L606.6873566312306,64.98451293941996L626.0113950716021,58.99258946853605z" style="fill:rgb(0,0,0)"></path><path d="M729.8839105318206,120.55836907770184L709.792306333649,119.19523431105146M709.792306333649,4.917495668933042L709.792306333649,119.19523431105146M709.792306333649,119.19523431105146L704.155134214614,124.05362139272795" style="fill:none;stroke:rgb(0,0,0);stroke-width:1;stroke-linecap:round"></path><path d="M631.7285868695712,124.02300260930885L626.0914147505362,128.88138969098532L626.0914147505362,-5.644506123481191z" style="fill:rgb(238,238,238); fill-opacity: 0.4"></path><path d="M646.1830189487079,-4.281371356830813L646.1830189487079,130.24452445763572M495.69275213958736,-134.98544395992636L490.0555800205524,-130.12705687824987" style="fill:none;stroke:rgb(0,0,0);stroke-width:1;stroke-linecap:round"></path><path d="M651.8201910677428,-9.139758438507291L651.8201910677428,125.38613737595922L631.7285868695712,-10.502893205157667z" style="fill:rgb(238,238,238); fill-opacity: 0.4"></path><path d="M605.4922833938238,52.80326618079426L604.75368743852,61.60480602463836L626.0113950716021,58.99258946853605z" style="fill:rgb(0,0,0)"></path><path d="M548.0276952864584,-10.940816411397849L568.1192994846301,-9.577681644747468L553.6648674054935,-15.799203493074325zM631.7285868695712,-10.502893205157667L631.7285868695712,124.02300260930885L626.0914147505362,-5.644506123481191z" style="fill:rgb(238,238,238); fill-opacity: 0.4"></path><path d="M729.8839105318206,6.280630435583416L729.8839105318206,120.55836907770184M729.8839105318206,120.55836907770184L724.2467384127856,125.41675615937832" style="fill:none;stroke:rgb(0,0,0);stroke-width:1;stroke-linecap:round"></path><path d="M490.0555800205524,-130.12705687824987L495.6927521395874,-134.98544395992633L475.6011479414157,-136.34857872657673z" style="fill:rgb(238,238,238); fill-opacity: 0.4"></path><path d="M548.0276952864584,-10.940816411397845L568.11929948463,-9.577681644747472" style="fill:none;stroke:rgb(0,0,0);stroke-width:1;stroke-linecap:round"></path><path d="M704.1551342146138,124.05362139272795L709.7923063336489,119.19523431105146L729.8839105318206,120.55836907770184z" style="fill:rgb(238,238,238); fill-opacity: 0.4"></path><path d="M651.9002107466769,60.749041783941976L684.7510760953085,62.97784124811541M651.8201910677428,-9.139758438507288L631.7285868695711,-10.502893205157662M631.7285868695711,-10.502893205157662L626.0914147505362,-5.644506123481188" style="fill:none;stroke:rgb(0,0,0);stroke-width:1;stroke-linecap:round"></path><path d="M626.0914147505362,128.88138969098532L646.1830189487077,130.2445244576357L646.1830189487077,-4.281371356830817zM469.9639758223807,-131.49019164490025L490.0555800205524,-130.12705687824987L475.6011479414157,-136.34857872657673zM729.8839105318206,120.55836907770184L709.7923063336489,119.19523431105146L709.7923063336489,4.917495668933038z" style="fill:rgb(238,238,238); fill-opacity: 0.4"></path><path d="M651.8201910677428,-9.139758438507288L646.1830189487079,-4.281371356830813M469.96397582238075,-131.49019164490025L490.0555800205524,-130.12705687824987" style="fill:none;stroke:rgb(0,0,0);stroke-width:1;stroke-linecap:round"></path><path d="M724.2467384127855,125.41675615937832L704.1551342146138,124.05362139272795L729.8839105318206,120.55836907770184zM646.1830189487077,-4.281371356830817L646.1830189487077,130.2445244576357L651.8201910677428,-9.139758438507291z" style="fill:rgb(238,238,238); fill-opacity: 0.4"></path><path d="M704.155134214614,9.775882750609517L704.155134214614,124.05362139272795M704.155134214614,124.05362139272795L724.2467384127856,125.41675615937832" style="fill:none;stroke:rgb(0,0,0);stroke-width:1;stroke-linecap:round"></path><path d="M626.0914147505362,-5.644506123481191L626.0914147505362,128.88138969098532L646.1830189487077,-4.281371356830817zM646.1830189487077,-4.281371356830817L651.8201910677428,-9.139758438507291L631.7285868695712,-10.502893205157667z" style="fill:rgb(238,238,238); fill-opacity: 0.4"></path><path d="M685.9461493327152,56.03963284603204L683.5560028579015,58.0995764687109L704.0751145356799,64.28889975645271zM682.8174069025979,66.901116312555L684.7510760953083,70.28082322733661L704.0751145356799,64.28889975645271z" style="fill:rgb(0,0,0)"></path><path d="M724.2467384127855,125.41675615937832L729.8839105318206,120.55836907770184L729.8839105318206,6.280630435583412zM709.7923063336489,119.19523431105146L704.1551342146138,124.05362139272795L704.1551342146138,9.775882750609513zM729.8839105318206,6.280630435583412L729.8839105318206,120.55836907770184L709.7923063336489,4.917495668933038z" style="fill:rgb(238,238,238); fill-opacity: 0.4"></path><path d="M683.5560028579015,58.0995764687109L682.8174069025979,66.901116312555L704.0751145356799,64.28889975645271z" style="fill:rgb(0,0,0)"></path><path d="M626.0914147505362,-5.644506123481191L646.1830189487077,-4.281371356830817L631.7285868695712,-10.502893205157667z" style="fill:rgb(238,238,238); fill-opacity: 0.4"></path><path d="M724.2467384127856,11.13901751725989L724.2467384127856,125.41675615937832" style="fill:none;stroke:rgb(0,0,0);stroke-width:1;stroke-linecap:round"></path><path d="M709.7923063336489,4.917495668933038L709.7923063336489,119.19523431105146L704.1551342146138,9.775882750609513z" style="fill:rgb(238,238,238); fill-opacity: 0.4"></path><path d="M807.9476299958983,102.34728399817593L787.8560257977267,100.98414923152555M787.8560257977267,33.72120132429228L787.8560257977267,100.98414923152555M787.8560257977267,100.98414923152555L782.2188536786917,105.84253631320202M729.8839105318206,6.280630435583416L709.792306333649,4.917495668933042M709.792306333649,4.917495668933042L704.155134214614,9.775882750609517M626.0914147505362,-5.644506123481188L646.1830189487079,-4.281371356830813M729.9639302107547,66.04535207185863L762.8147955593862,68.27415153603206M807.9476299958983,35.08433609094266L807.9476299958983,102.34728399817593M807.9476299958983,102.34728399817593L802.3104578768633,107.2056710798524" style="fill:none;stroke:rgb(0,0,0);stroke-width:1;stroke-linecap:round"></path><path d="M704.1551342146138,124.05362139272795L724.2467384127855,125.41675615937832L724.2467384127855,11.139017517259887z" style="fill:rgb(238,238,238); fill-opacity: 0.4"></path><path d="M729.8839105318206,6.280630435583416L724.2467384127856,11.13901751725989" style="fill:none;stroke:rgb(0,0,0);stroke-width:1;stroke-linecap:round"></path><path d="M807.9476299958983,102.34728399817594L787.8560257977266,100.98414923152555L787.8560257977266,33.721201324292274zM782.2188536786915,105.84253631320202L787.8560257977266,100.98414923152555L807.9476299958983,102.34728399817594zM724.2467384127855,11.139017517259887L724.2467384127855,125.41675615937832L729.8839105318206,6.280630435583412zM724.2467384127855,11.139017517259887L729.8839105318206,6.280630435583412L709.7923063336489,4.917495668933038zM704.1551342146138,9.775882750609513L704.1551342146138,124.05362139272795L724.2467384127855,11.139017517259887z" style="fill:rgb(238,238,238); fill-opacity: 0.4"></path><path d="M764.009868796793,61.33594313394872L761.6197223219792,63.395886756627554L782.1388339997576,69.58521004436938z" style="fill:rgb(0,0,0)"></path><path d="M807.9476299958983,35.084336090942664L807.9476299958983,102.34728399817594L787.8560257977266,33.721201324292274z" style="fill:rgb(238,238,238); fill-opacity: 0.4"></path><path d="M760.8811263666756,72.19742660047166L762.8147955593861,75.57713351525328L782.1388339997576,69.58521004436938z" style="fill:rgb(0,0,0)"></path><path d="M704.1551342146138,9.775882750609513L724.2467384127855,11.139017517259887L709.7923063336489,4.917495668933038zM802.3104578768633,107.20567107985241L782.2188536786915,105.84253631320202L807.9476299958983,102.34728399817594z" style="fill:rgb(238,238,238); fill-opacity: 0.4"></path><path d="M807.9476299958983,35.08433609094266L787.8560257977267,33.72120132429228M787.8560257977267,33.72120132429228L782.2188536786917,38.57958840596876" style="fill:none;stroke:rgb(0,0,0);stroke-width:1;stroke-linecap:round"></path><path d="M802.3104578768633,107.20567107985241L807.9476299958983,102.34728399817594L807.9476299958983,35.084336090942664zM787.8560257977266,33.721201324292274L787.8560257977266,100.98414923152555L782.2188536786915,38.57958840596876z" style="fill:rgb(238,238,238); fill-opacity: 0.4"></path><path d="M761.6197223219792,63.395886756627554L760.8811263666756,72.19742660047166L782.1388339997576,69.58521004436938z" style="fill:rgb(0,0,0)"></path><path d="M787.8560257977266,100.98414923152555L782.2188536786915,105.84253631320202L782.2188536786915,38.57958840596876z" style="fill:rgb(238,238,238); fill-opacity: 0.4"></path><path d="M782.2188536786917,38.57958840596876L782.2188536786917,105.84253631320202M782.2188536786917,105.84253631320202L802.3104578768633,107.2056710798524M704.155134214614,9.775882750609517L724.2467384127856,11.13901751725989M807.9476299958983,35.08433609094266L802.3104578768633,39.94272317261913M808.0276496748322,71.34166235977528L840.8785150234638,73.57046182394872M802.3104578768633,39.94272317261913L802.3104578768633,107.2056710798524" style="fill:none;stroke:rgb(0,0,0);stroke-width:1;stroke-linecap:round"></path><path d="M802.3104578768633,39.94272317261915L807.9476299958983,35.084336090942664L787.8560257977266,33.721201324292274zM782.2188536786915,105.84253631320202L802.3104578768633,107.20567107985241L802.3104578768633,39.94272317261915z" style="fill:rgb(238,238,238); fill-opacity: 0.4"></path><path d="M886.0113494599759,75.4727167283202L865.9197452618042,74.10958196166982M865.9197452618042,71.18838916998133L865.9197452618042,74.10958196166982M865.9197452618042,74.10958196166982L860.2825731427694,78.9679690433463" style="fill:none;stroke:rgb(0,0,0);stroke-width:1;stroke-linecap:round"></path><path d="M802.3104578768633,39.94272317261915L802.3104578768633,107.20567107985241L807.9476299958983,35.084336090942664z" style="fill:rgb(238,238,238); fill-opacity: 0.4"></path><path d="M886.0113494599759,72.55152393663172L865.9197452618042,71.18838916998133M865.9197452618042,71.18838916998133L860.2825731427694,76.04677625165783" style="fill:none;stroke:rgb(0,0,0);stroke-width:1;stroke-linecap:round"></path><path d="M886.0113494599761,75.4727167283202L865.9197452618043,74.1095819616698L865.9197452618043,71.18838916998133zM782.2188536786915,38.57958840596876L802.3104578768633,39.94272317261915L787.8560257977266,33.721201324292274zM782.2188536786915,38.57958840596876L782.2188536786915,105.84253631320202L802.3104578768633,39.94272317261915zM886.0113494599761,72.55152393663171L886.0113494599761,75.4727167283202L865.9197452618043,71.18838916998133z" style="fill:rgb(238,238,238); fill-opacity: 0.4"></path><path d="M886.0113494599759,72.55152393663172L886.0113494599759,75.4727167283202M886.0113494599759,75.4727167283202L880.374177340941,80.33110380999669M886.0113494599759,72.55152393663172L880.374177340941,77.40991101830821" style="fill:none;stroke:rgb(0,0,0);stroke-width:1;stroke-linecap:round"></path><path d="M842.0735882608707,66.63225342186539L839.6834417860571,68.69219704454423L860.2025534638353,74.88152033228604z" style="fill:rgb(0,0,0)"></path><path d="M865.9197452618043,71.18838916998133L865.9197452618043,74.1095819616698L860.2825731427694,76.04677625165782z" style="fill:rgb(238,238,238); fill-opacity: 0.4"></path><path d="M782.2188536786917,38.57958840596876L802.3104578768633,39.94272317261913" style="fill:none;stroke:rgb(0,0,0);stroke-width:1;stroke-linecap:round"></path><path d="M838.9448458307534,77.49373688838833L840.8785150234639,80.87344380316995L860.2025534638353,74.88152033228604z" style="fill:rgb(0,0,0)"></path><path d="M860.2825731427694,78.96796904334629L865.9197452618043,74.1095819616698L886.0113494599761,75.4727167283202z" style="fill:rgb(238,238,238); fill-opacity: 0.4"></path><path d="M839.6834417860571,68.69219704454423L838.9448458307534,77.49373688838833L860.2025534638353,74.88152033228604z" style="fill:rgb(0,0,0)"></path><path d="M880.3741773409411,77.40991101830821L886.0113494599761,72.55152393663171L865.9197452618043,71.18838916998133zM880.3741773409411,80.33110380999669L886.0113494599761,75.4727167283202L886.0113494599761,72.55152393663171zM865.9197452618043,74.1095819616698L860.2825731427694,78.96796904334629L860.2825731427694,76.04677625165782zM860.2825731427694,76.04677625165782L880.3741773409411,77.40991101830821L865.9197452618043,71.18838916998133zM880.3741773409411,80.33110380999669L860.2825731427694,78.96796904334629L886.0113494599761,75.4727167283202zM880.3741773409411,77.40991101830821L880.3741773409411,80.33110380999669L886.0113494599761,72.55152393663171z" style="fill:rgb(238,238,238); fill-opacity: 0.4"></path><path d="M860.2825731427694,76.04677625165783L860.2825731427694,78.9679690433463M860.2825731427694,78.9679690433463L880.374177340941,80.33110380999669M860.2825731427694,76.04677625165783L880.374177340941,77.40991101830821" style="fill:none;stroke:rgb(0,0,0);stroke-width:1;stroke-linecap:round"></path><path d="M860.2825731427694,76.04677625165782L860.2825731427694,78.96796904334629L880.3741773409411,77.40991101830821zM860.2825731427694,78.96796904334629L880.3741773409411,80.33110380999669L880.3741773409411,77.40991101830821z" style="fill:rgb(238,238,238); fill-opacity: 0.4"></path><path d="M880.374177340941,77.40991101830821L880.374177340941,80.33110380999669" style="fill:none;stroke:rgb(0,0,0);stroke-width:1;stroke-linecap:round"></path></svg>